<svg id="Capa_1" data-name="Capa 1" xmlns="http://www.w3.org/2000/svg" viewBox="0 0 193.01 184.87"><defs><style>.cls-1{fill:#e7c11f;}.cls-2{fill:#065297;}</style></defs><title>PRESTAMO</title><path class="cls-1" d="M17.7,50.15v6.7q0,9.52,0,19.05c0,5-.09,10.06-.08,15.09q0,24.41.08,48.79c0,3.48,1.41,6,4.71,7.38a5.16,5.16,0,0,0,1.9.39q16,.06,32,0l25.1,0c4.14,0,8.28,0,12.42,0a1.42,1.42,0,0,1,1.11.62c1,3.19,1.91,6.4,2.86,9.66a4.76,4.76,0,0,1-.68,0c-4.91,0-9.81-.1-14.72-.09q-28.51,0-57,.1a17.69,17.69,0,0,1-17.6-14.37,18.41,18.41,0,0,1-.31-3.23q0-24.63,0-49.26,0-24.81,0-49.61c0-8.21,6.69-15.89,14.82-16.92a32.81,32.81,0,0,1,3.7-.23c5.08,0,10.15,0,15.22,0,.42,0,.84,0,1.38-.06,0-2.44,0-4.83,0-7.22a12.51,12.51,0,0,1,1.91-6.93,11,11,0,0,1,11.26-4.8,11.14,11.14,0,0,1,8.61,9,35.6,35.6,0,0,1,.23,4.27c0,1.86,0,3.71,0,5.65H75.73c0-2.58-.13-5.17,0-7.74a14.81,14.81,0,0,1,1.06-4.8A10.66,10.66,0,0,1,88.62,5.29a10.87,10.87,0,0,1,8.93,9.55c.27,2.53.16,5.1.22,7.65,0,.57,0,1.14,0,1.78h11.17c0-.45,0-.9,0-1.34.07-2.86-.07-5.75.26-8.58a11,11,0,0,1,10.86-9.26,11.14,11.14,0,0,1,10.72,9.71c.15,1.42.17,2.86.19,4.29,0,1.7,0,3.4,0,5.25h1.31c5.42,0,10.85-.19,16.26.07a16.94,16.94,0,0,1,15.18,11.47,20,20,0,0,1,1.06,6.23c.07,19,0,38,0,56.93,0,.22,0,.44,0,.64-2.24-1.07-4.41-2.14-6.6-3.16a16.62,16.62,0,0,0-2.7-1c-.79-.2-1-.57-1-1.36q0-17.48,0-35v-9ZM58.29,28.08h0c0-3.86.08-7.74,0-11.6a6.72,6.72,0,0,0-1.1-3.3A4.36,4.36,0,0,0,52,11.58a5.19,5.19,0,0,0-3.25,4.9q0,11.55,0,23.09a5,5,0,0,0,4.8,5.12,4.91,4.91,0,0,0,4.74-5.12C58.3,35.74,58.29,31.91,58.29,28.08Zm33.22,0h0c0-3.87,0-7.73,0-11.6a5,5,0,0,0-4.65-5.11,4.84,4.84,0,0,0-4.93,4.93c-.05,1.39,0,2.78,0,4.18,0,6.42,0,12.84,0,19.27a4.91,4.91,0,0,0,1.73,3.78,4.3,4.3,0,0,0,4.86.77,4.68,4.68,0,0,0,2.92-4.38C91.56,35.93,91.51,32,91.51,28Zm23.69,0h0c0,3.91,0,7.83,0,11.74a4.88,4.88,0,0,0,4.73,4.89,5,5,0,0,0,4.8-4.86q.06-11.79,0-23.59a4.75,4.75,0,0,0-9.5-.14C115.14,20.05,115.2,24,115.2,28Z"/><path class="cls-2" d="M28.35,81.89V61.36h23V81.89Z"/><path class="cls-1" d="M120.83,81.87V61.38H143.9V81.87Z"/><path class="cls-2" d="M51.4,88.8v20.52h-23V88.8Z"/><path class="cls-1" d="M28.36,116.2h23v20.55h-23Z"/><path class="cls-1" d="M90,81.87V61.39h23.08V81.87Z"/><path class="cls-2" d="M82.16,81.92h-23V61.35h23Z"/><path class="cls-1" d="M59.15,136.73V116.25h23v20.48Z"/><path class="cls-1" d="M59.17,109.31V88.79h23v20.52Z"/><path class="cls-1" d="M90.09,88.79h23v7.8c0,1.66.47,3.54-.15,4.93s-2.36,2.12-3.53,3.22c-1.39,1.29-2.68,2.68-4,4a1.79,1.79,0,0,1-1,.6c-4.72,0-9.44,0-14.28,0Z"/><path class="cls-1" d="M94,136.76H90.06V116.27H100A46.31,46.31,0,0,0,94,136.76Z"/><path class="cls-1" d="M120.85,97.23V88.8h23v4.32A47.19,47.19,0,0,0,120.85,97.23Z"/><path class="cls-2" d="M180.77,139.91c1.2.13,2.42.22,3.63.42.43.07,1,.32,1.17.65a1.59,1.59,0,0,1-.32,1.33q-4.41,5.48-8.9,10.87c-.78.95-1.5.89-2.08-.17q-3.42-6.24-6.77-12.54a1.4,1.4,0,0,1,0-1.25,1.8,1.8,0,0,1,1.31-.44c1.61.09,3.22.29,4.83.45.52-10.62-5.61-24.22-18.94-30.7a33.86,33.86,0,0,0-41.58,51.15l-5.36,4.15a40.68,40.68,0,0,1,41.05-64.64A41.18,41.18,0,0,1,180.77,139.91Z"/><path class="cls-2" d="M139.36,135.36c5.25-4.17,10.35-8.25,15.5-12.28a31.59,31.59,0,0,1,4-2.58A8.36,8.36,0,0,1,161,120a7.24,7.24,0,0,1-.56,2.14,80.28,80.28,0,0,1-4.76,6.85c-4,5-8.21,9.88-12.37,14.78-2.13,2.52-5,2.57-7.18.1a54.22,54.22,0,0,1-7.89-11.56c-.44-.88-1.18-1.95-.41-2.79s2-.17,2.77.31c2.57,1.5,5.07,3.11,7.59,4.69C138.6,134.79,139,135.13,139.36,135.36Z"/><path class="cls-2" d="M115.05,142.12c-1.35,0-2.71.07-4.06,0-1.86-.11-2.68-1.49-2.09-3.24a1.77,1.77,0,0,1,1.75-1.27c2.86-.05,5.73-.09,8.59,0,1.35,0,1.94.95,1.87,2.43a2,2,0,0,1-2.11,2.12h-4Z"/><path class="cls-2" d="M143.55,163.2c0,1.54,0,3.09-.16,4.61-.11,1.27-.88,1.79-2.12,1.78s-2.13-.53-2.18-1.85c-.1-2.89-.11-5.79,0-8.67,0-1.45.82-1.88,2.52-1.8a1.84,1.84,0,0,1,1.93,2c.05,1.31,0,2.63,0,3.94Z"/><path class="cls-2" d="M142.4,113.63c0,1.36,0,2.71,0,4.07a1.83,1.83,0,0,1-2,2c-1.58,0-2.36-.47-2.4-1.84-.07-2.86-.07-5.73,0-8.59,0-1.3.89-2,2.25-1.93a2,2,0,0,1,2.19,2C142.43,110.77,142.4,112.2,142.4,113.63Z"/><path class="cls-2" d="M175.64,158.84,171,165.53,165.72,161l3.88-5.55Z"/><path class="cls-2" d="M116.11,163.12l5,4.15c-1.21,1.85-2.44,3.7-3.8,5.76l-6.16-5Z"/><path class="cls-2" d="M157.77,175.75c-1.1-2.25-2.07-4.24-3.05-6.23l5.77-3.55,4.19,5.49Z"/><path class="cls-2" d="M132.89,179.22,125.05,177l2.51-6.44,6.5,1.82C133.69,174.55,133.3,176.79,132.89,179.22Z"/><path class="cls-2" d="M149.6,178.68l-8,1.1c-.1-2.42-.2-4.61-.3-6.88l6.7-1Z"/></svg>