<svg id="Capa_1" data-name="Capa 1" xmlns="http://www.w3.org/2000/svg" viewBox="0 0 479.12 500.78"><defs><style>.cls-1{fill:#e7c11f;}.cls-2,.cls-3,.cls-4{fill:#065297;}.cls-3{opacity:0.7;}.cls-4{opacity:0.4;}</style></defs><title>CONTACTO</title><path class="cls-1" d="M106.09,74.41c6.1,0,12.19,0,18.29,0,4,0,6.44,1.87,7.67,5.57Q146,122,160,164c1.37,4.17.35,6.53-3.74,9.28-11.6,7.76-23.23,15.47-34.83,23.23-5.91,3.94-6.66,6.16-4,12.71,16.84,41.56,42.62,76.84,75.47,107.09,25.8,23.78,54.72,42.78,87.32,56,7.09,2.88,9,2.28,13.29-4.1,7.55-11.28,15.05-22.6,22.61-33.87,3.51-5.24,5.63-5.92,11.54-3.95l81.15,27c5.21,1.74,6.65,3.47,6.66,8.8,0,11.68.19,23.37-.29,35-1.06,26.26-24.08,50.32-50.26,53-14.75,1.52-29.38,0-44-1.5a290.56,290.56,0,0,1-61.57-13q-120-39.45-183-149.08A301.11,301.11,0,0,1,39,183.24,387.17,387.17,0,0,1,35.1,132.1c-.36-30.83,24.59-56.19,55.38-57.55,5.2-.23,10.41,0,15.61,0Z"/><path class="cls-2" d="M444,232.66c.06,9.91-5.59,16.49-12.86,17.28a14.59,14.59,0,0,1-16.26-12.17c-2.26-12.19-3.28-24.74-6.88-36.51-16.65-54.41-51.71-92.47-104.19-114.37a160.07,160.07,0,0,0-49.36-11.62c-9.55-.76-15.77-8.16-14.57-16.85S248.74,45,258.16,46c25.63,2.59,50.17,9,73,21.05,59.4,31.3,96.45,79.68,109.91,145.69C442.53,220,443.26,227.48,444,232.66Z"/><path class="cls-3" d="M370.61,250c-7.3,0-13.32-4.89-14.26-12.22-2.55-19.86-9-38.27-20.69-54.55-20.07-27.83-47-44.59-81.18-49.2-10.9-1.47-17-10.09-13.91-19.47a15,15,0,0,1,16.13-10c65.87,8,114.85,58.05,126.46,116.16.79,4,1.51,7.95,2.08,12C386.58,242.09,379.85,250,370.61,250Z"/><path class="cls-4" d="M254.75,163.56a75.47,75.47,0,0,1,26.17,8.73c23.43,12.81,38.39,32.2,44.57,58.26,2.21,9.31-2.17,17.09-10.77,19.16-8.14,2-15.54-3.45-17.82-12.43-6-23.66-20.93-38.53-44.65-44.41-7.34-1.83-12.18-7.07-12.42-13.92a14.41,14.41,0,0,1,10.41-14.65A35.36,35.36,0,0,1,254.75,163.56Z"/></svg>