<svg id="Capa_1" data-name="Capa 1" xmlns="http://www.w3.org/2000/svg" viewBox="0 0 7.15 10.01"><defs><style>.cls-1{fill:#e7c11f;fill-rule:evenodd;}</style></defs><title>MODIFICACIONES WEB</title><path class="cls-1" d="M3,5.06,5.1,6.66c.37.29.76.57,1.1.89a1,1,0,0,1,.19,1.3,1,1,0,0,1-1.56.36c-.48-.32-.94-.68-1.4-1-.68-.52-1.37-1-2-1.58A2.25,2.25,0,0,1,1,6.13a1.63,1.63,0,0,1,0-2.07,4.6,4.6,0,0,1,.77-.82C2.63,2.48,3.56,1.73,4.5,1A2.19,2.19,0,0,1,5.29.6.89.89,0,0,1,6.23,1a.92.92,0,0,1,.18,1,2.34,2.34,0,0,1-.54.67C5,3.45,4.14,4.14,3.28,4.85Z"/></svg>