<svg id="Capa_1" data-name="Capa 1" xmlns="http://www.w3.org/2000/svg" viewBox="0 0 7.15 10.01"><defs><style>.cls-1{fill:#e7c11f;fill-rule:evenodd;}</style></defs><title>MODIFICACIONES WEB</title><path class="cls-1" d="M4.11,5,2.05,3.35A11.57,11.57,0,0,1,1,2.46,1,1,0,0,1,.76,1.17,1,1,0,0,1,2.32.8c.48.32.94.69,1.4,1,.68.53,1.37,1.05,2,1.59a2.49,2.49,0,0,1,.41.45A1.63,1.63,0,0,1,6.21,6a4.28,4.28,0,0,1-.77.82Q4.06,7.93,2.65,9a2.36,2.36,0,0,1-.79.4A.91.91,0,0,1,.91,9,1,1,0,0,1,.74,8a2.27,2.27,0,0,1,.54-.66C2.13,6.57,3,5.87,3.87,5.16Z"/></svg>