<svg id="Capa_1" data-name="Capa 1" xmlns="http://www.w3.org/2000/svg" xmlns:xlink="http://www.w3.org/1999/xlink" viewBox="0 0 193.01 184.87"><defs><style>.cls-1{fill:#e7c11f;}.cls-2{fill:url(#Degradado_sin_nombre_3);}</style><linearGradient id="Degradado_sin_nombre_3" x1="12.67" y1="41.77" x2="180.35" y2="41.77" gradientUnits="userSpaceOnUse"><stop offset="0" stop-color="#00587e"/><stop offset="0.49" stop-color="#005e96"/><stop offset="0.64" stop-color="#005c92"/><stop offset="0.78" stop-color="#005688"/><stop offset="0.89" stop-color="#004e79"/></linearGradient></defs><title>MODIFICACIONES WEB</title><path class="cls-1" d="M59.1,37.25h74.82A15.09,15.09,0,0,1,149,52.34v108a15.08,15.08,0,0,1-15.08,15.08H59.1A15.08,15.08,0,0,1,44,160.36v-108A15.09,15.09,0,0,1,59.1,37.25ZM96.47,128A38.87,38.87,0,1,0,57.61,89,39.06,39.06,0,0,0,96.47,128Z"/><path class="cls-2" d="M154.62,74V52.68c1.07,0,2.08,0,3.1,0a4.59,4.59,0,0,0,4.6-4.7q.09-6.28,0-12.57a4.4,4.4,0,0,0-4.24-4.57,19,19,0,0,0-2.5-.12q-59.07,0-118.14,0a18.78,18.78,0,0,0-2.71.15,4.3,4.3,0,0,0-4,4.35c-.07,4.33-.08,8.66,0,13a4.55,4.55,0,0,0,4.6,4.49c1,0,1.94,0,3.07,0v21c-5.13,0-10.19.53-15.09-.14-6-.8-10.55-6.77-10.59-12.86q-.11-19,0-37.91A13.67,13.67,0,0,1,25.61,9.49c1-.05,1.95-.06,2.93-.06q68,0,135.94,0a21.65,21.65,0,0,1,6.58.81,13.51,13.51,0,0,1,9.27,13.09q0,18.12,0,36.24c0,7.59-4.74,13.39-12.25,14.25C163.7,74.36,159.21,74,154.62,74Z"/><path class="cls-1" d="M72.1,90.79H68.35c-3,0-3,0-2.56-3.23h6.29c.68-5.14,1.76-10,6.36-13a15.14,15.14,0,0,1,9.9-2.16V78C79.78,79.84,78,81.42,77.5,87.5c5.79,0,11.57,0,17.34-.06.42,0,1-.78,1.2-1.31.77-2,1.23-4.15,2.15-6.08a11.85,11.85,0,0,1,13.92-6.59A13.18,13.18,0,0,1,122.6,84.58c.16.89.3,1.78.48,2.87h4.65c-.41,1.33-.44,2.83-1.1,3.18-.91.49-2.28.12-3.57.12-.61,4.7-1.78,9-5.77,11.76a11.14,11.14,0,0,1-7.37,2.16V99.08c5.73-1.74,7.32-3.4,7.72-8.14a13.7,13.7,0,0,0-1.57-.17c-4.33,0-8.65,0-13,0a2,2,0,0,0-2.34,1.7,47.61,47.61,0,0,1-2,5.72c-2.62,6.27-7.11,8.72-13.82,7.67-7.47-1.17-11.25-5-12.39-12.56C72.47,92.5,72.29,91.76,72.1,90.79Zm5.23.09c.08,5.26,3.11,8.53,8,8.88,5.14.36,8.38-2.67,9.36-8.88Zm24.8-3.48h15.56c0-4.67-2.69-7.58-7.34-8.07C106.15,78.9,103.13,81.81,102.13,87.4Z"/></svg>