<svg id="Capa_1" data-name="Capa 1" xmlns="http://www.w3.org/2000/svg" xmlns:xlink="http://www.w3.org/1999/xlink" viewBox="0 0 193.01 184.87"><defs><style>.cls-1{fill:#e7c11f;}.cls-2{fill:url(#Degradado_sin_nombre_3);}</style><linearGradient id="Degradado_sin_nombre_3" x1="36.47" y1="153.79" x2="156.55" y2="153.79" gradientUnits="userSpaceOnUse"><stop offset="0" stop-color="#00587e"/><stop offset="0.49" stop-color="#005e96"/><stop offset="0.64" stop-color="#005c92"/><stop offset="0.78" stop-color="#005688"/><stop offset="0.89" stop-color="#004e79"/></linearGradient></defs><title>MODIFICACIONES WEB</title><path class="cls-1" d="M96.54,148.89c-2.69-2.95-5.29-5.72-7.8-8.56A245.91,245.91,0,0,1,72,119.26,168.61,168.61,0,0,1,54.45,88.79a90.89,90.89,0,0,1-5.82-18.21,56.15,56.15,0,0,1-1-15.94,49.29,49.29,0,0,1,19.47-35,49,49,0,0,1,23.19-9.42A49.24,49.24,0,0,1,100.62,10a46,46,0,0,1,17,4.58q21.28,10.54,26.85,33.7a47.82,47.82,0,0,1,.92,15.65,79.43,79.43,0,0,1-5.47,21.78,146.75,146.75,0,0,1-13.48,25.71,220.93,220.93,0,0,1-17.64,23.75c-3.78,4.42-7.76,8.66-11.66,13C97,148.33,96.8,148.55,96.54,148.89Zm-.07-60.4a30.17,30.17,0,1,0-30.1-31.4A30.17,30.17,0,0,0,96.47,88.49Z"/><path class="cls-2" d="M116.23,138c1.09-1.34,2.23-2.54,3.14-3.9a2.63,2.63,0,0,1,3.17-1.26c8.17,1.59,16.19,3.62,23.6,7.56a26.27,26.27,0,0,1,7.57,5.72c3.78,4.29,3.79,9.26,0,13.56a26.85,26.85,0,0,1-7.62,5.76,61.34,61.34,0,0,1-11.16,4.51,119,119,0,0,1-18.1,3.86A157.73,157.73,0,0,1,90.6,175a139.49,139.49,0,0,1-17.42-1.65,92.68,92.68,0,0,1-22.5-6.11,33.36,33.36,0,0,1-10.51-6.65,12.2,12.2,0,0,1-3.32-5.17,9,9,0,0,1,1.39-7.92,20.77,20.77,0,0,1,6.09-5.61,55.82,55.82,0,0,1,14.57-6.32,99.24,99.24,0,0,1,13.52-3,.68.68,0,0,1,.54.14c1.4,1.71,2.77,3.44,4.22,5.26-1.21.2-2.33.37-3.45.57-5.4,1-10.75,2.14-15.71,4.58a17.18,17.18,0,0,0-4,2.66c-2.11,1.93-1.9,4.3.32,6.11a21.71,21.71,0,0,0,7.28,3.62,77.3,77.3,0,0,0,13.27,2.86,149.62,149.62,0,0,0,25.38,1.34c5.36-.17,10.72-.57,16.06-1.12a69.7,69.7,0,0,0,15.88-3.38,17.94,17.94,0,0,0,6.33-3.31,6.86,6.86,0,0,0,1.6-2.11,3,3,0,0,0-.52-3.24A12,12,0,0,0,135,143a54.14,54.14,0,0,0-12.68-4C120.35,138.66,118.36,138.34,116.23,138Z"/></svg>