<svg id="Capa_1" data-name="Capa 1" xmlns="http://www.w3.org/2000/svg" viewBox="0 0 193.01 184.87"><defs><style>.cls-1{fill:#e7c11f;}</style></defs><title>ICONO ADJUNTA TU CV</title><path class="cls-1" d="M95.63,180.21H37a22.43,22.43,0,0,1-22.16-18.42,20.14,20.14,0,0,1-.31-3.38c0-9.53-.05-19,0-28.58A9.59,9.59,0,0,1,23,120.72c6.18-.61,10.9,3.68,10.92,10,0,8.31,0,16.62,0,24.93,0,.61,0,1.22,0,1.82a3.17,3.17,0,0,0,3.51,3.44H155.07c2.93,0,4-1.13,4-4,0-9.2,0-18.4,0-27.6a9.65,9.65,0,0,1,19.29-.52q.18,15.21,0,30.4c-.12,8.5-6.52,16.87-14.61,19.7a25.39,25.39,0,0,1-8.45,1.36H95.63Z"/><path class="cls-1" d="M72.87,76.94c-.06-.76-.15-1.52-.17-2.28,0-1.43-.4-1.8-2-1.81H60.31c-3.76,0-7.52,0-11.29,0a1.82,1.82,0,0,1-1.39-.59,1.78,1.78,0,0,1,.28-1.5c3.87-5.32,7.81-10.6,11.68-15.92,3.37-4.64,6.68-9.33,10-14A11.84,11.84,0,0,1,71,39.5a6.22,6.22,0,0,0,.56-.46q6.7-6.74,13.39-13.49,5.9-5.93,11.82-11.82l3.88-3.87a13.17,13.17,0,0,1,1,1q11.94,16.44,23.88,32.87,8.24,11.32,16.49,22.62c1.05,1.44,2.12,2.86,3.1,4.34a1.88,1.88,0,0,1,.31,1.5,1.78,1.78,0,0,1-1.38.61c-7.09,0-14.18,0-21.26,0-2.21,0-2.41.22-2.44,2.42,0,.8-.12,1.6-.18,2.39-2.59,2.61-5.17,5.23-7.77,7.83L97,100.82,83.17,87.2Q78,82.09,72.87,76.94Z"/><path class="cls-1" d="M120.08,124.15a8.17,8.17,0,0,1,.2,1.3q0,8,0,16c0,1.43-.34,1.79-1.78,1.79h-44c-1.38,0-1.8-.34-1.8-1.53,0-5.35,0-10.7,0-16a4.05,4.05,0,0,1,.16-.83c2.27-2.24,4.55-4.47,6.81-6.72,3.7-3.68,7.37-7.38,11.07-11.06,2.06-2,4.14-4.07,6.22-6.11,1.25,1.26,2.51,2.51,3.77,3.77q5.4,5.4,10.8,10.8Z"/><path class="cls-1" d="M97,101c-2.08,2-4.16,4.06-6.22,6.11-3.7,3.68-7.37,7.38-11.07,11.06-2.26,2.25-4.54,4.48-6.81,6.72a9.33,9.33,0,0,1-.16-1.28q0-22.81,0-45.63a6.15,6.15,0,0,1,.17-1Q78,82.07,83.17,87.2L97,100.82Z"/><path class="cls-1" d="M97,101v-.17l15.36-15.34c2.6-2.6,5.18-5.22,7.77-7.83a6.09,6.09,0,0,1,.19,1q0,22.11,0,44.22a7.86,7.86,0,0,1-.2,1.26l-8.55-8.59q-5.4-5.41-10.8-10.8C99.47,103.5,98.21,102.25,97,101Z"/><path class="cls-1" d="M96.73,13.73q-5.91,5.91-11.82,11.82Q78.21,32.28,71.52,39a6.22,6.22,0,0,1-.56.46,5.88,5.88,0,0,1,.55-1.28q8.3-11.43,16.62-22.82c1.4-1.92,2.85-3.8,4.27-5.7Z"/><path class="cls-1" d="M96.73,13.73l-4.33-4c1-1.48,2-3,3.09-4.44.47-.63,1.27-.87,1.78-.22,1.19,1.54,2.23,3.21,3.34,4.82Z"/></svg>