<svg id="Capa_1" data-name="Capa 1" xmlns="http://www.w3.org/2000/svg" viewBox="0 0 193.01 184.87"><defs><style>.cls-1{fill:#e7c11f;}</style></defs><title>TRABAJA CON NOSOTROS</title><path class="cls-1" d="M106.66,162.82v-4.88h4.43c5,0,9.94,0,14.9,0,2.09,0,3.31-1.08,3.27-2.72s-1.17-2.46-3.24-2.47c-6.37,0-12.74,0-19.27,0v-4.87h23.08c.47,0,.94,0,1.41,0,1.92-.09,3.19-1.18,3-2.74-.17-1.8-1.33-2.48-3-2.47q-10.77,0-21.54,0h-3V137.8h4.57c4.89,0,9.79,0,14.69,0,2.12,0,3.27-1,3.23-2.72s-1.12-2.45-3.24-2.45H96.7v-4.86c2.82,0,5.61,0,8.41,0a9.12,9.12,0,0,0,1.81-.08,2.49,2.49,0,0,0,2.22-2.68,2.35,2.35,0,0,0-2.47-2.41c-4.63,0-9.26-.1-13.88.09-2.77.12-5.05,1.62-7.13,3.41-4.1,3.56-8.26,7.06-12.34,10.64-1.51,1.33-3.16.87-4.76.59-3.82-.65-6.74-2.85-9.23-5.68-1.21-1.38-2.37-2.57-4.57-1.79-1.12.4-2.5.07-3.92.07a7.32,7.32,0,0,1-7,5.15c-3.74.11-6.09-2-7.53-5.34l-1.61.18c-4.94.52-8.46-2.51-8.65-7.49-.06-1.67,0-3.34,0-5.19l-1.07.12c-5.53.48-8.93-2.46-9-8,0-7.78-.23-15.58.3-23.33a77.53,77.53,0,0,1,17-43.47c1.58-2,3.32-3.87,5-5.78.35-.4.76-.73,1.22-1.17l3.19,3.34c-2.55,3.13-5.28,6.16-7.65,9.45A74.22,74.22,0,0,0,20.89,93.18c0,5.17,0,10.33,0,15.5a8.29,8.29,0,0,0,0,1.41c.25,1.49,1,2.51,2.67,2.43A2.34,2.34,0,0,0,26.05,110c0-2.4,0-4.8,0-7.33h4.88v2.27c0,5.77,0,11.55,0,17.32a2.71,2.71,0,0,0,2.62,3c1.48,0,2.5-1.18,2.58-3,0-.4,0-.8,0-1.21v-18.3l4.82-.23v2.23q0,10.77,0,21.54a8.62,8.62,0,0,0,0,1.61,2.55,2.55,0,0,0,2.79,2.34,2.37,2.37,0,0,0,2.36-2.51c0-.54,0-1.07,0-1.61q0-10.56,0-21.14v-2.26h4.87v15.43c0,1.34,0,2.68,0,4,0,1.93,1.11,3.15,2.73,3,1.82-.14,2.47-1.34,2.46-3q-.06-13.68-.09-27.35c0-.73,0-1.45,0-2.24h5c0,3.23,0,6.36,0,9.5,0,1.72,1,3.1,2.45,3.07a2.45,2.45,0,0,0,2.65-2.47c.1-4.48.19-9,0-13.45-.12-3-1.67-5.45-3.61-7.67-3.53-4-7-8.1-10.47-12.22a4.17,4.17,0,0,1-.88-2.52,13.71,13.71,0,0,1,4-9.6c.28-.29.56-.57.86-.85,1.87-1.76,4-3.33,2.75-6.51-.31-.78.09-1.85.17-2.93-3.33-1.34-5.45-3.75-5.3-7.57.13-3.45,2.12-5.66,5.3-7-.05-.54-.11-1.06-.16-1.58-.47-5.15,2.46-8.52,7.63-8.73,1.6-.07,3.21,0,5,0,0-.61-.06-1.11-.08-1.62C71.26,15.29,74.22,12,79.29,12c7.58,0,15.18-.16,22.74.27a77.65,77.65,0,0,1,44.46,17.11c2.36,1.86,4.57,3.93,7,6l-3.59,3.25c-2.75-2.27-5.53-4.76-8.52-7a71.77,71.77,0,0,0-39.18-14.5c-7.49-.44-15-.28-22.53-.36-2.13,0-3.32,1-3.32,2.68S77.44,22,79.72,22h6.55v4.78c-.62,0-1.33.1-2,.1-5.44,0-10.87,0-16.31,0-.47,0-.94,0-1.41,0-1.59.14-2.69.88-2.8,2.58-.09,1.46,1.18,2.6,2.94,2.61,5.37,0,10.74,0,16.11,0h3.51v4.83H84c-7.18,0-14.36,0-21.54,0-.79,0-1.81,0-2.29.42a3.7,3.7,0,0,0-1.33,2.58c.12.8,1.19,1.58,2,2.1.49.31,1.3.13,2,.13q10.68,0,21.34,0h2.1v4.73c-.65,0-1.36.1-2.06.1H67.71a7.68,7.68,0,0,0-1.8.1,2.42,2.42,0,0,0-2.14,2.71,2.33,2.33,0,0,0,2.5,2.35c2,.05,4,0,6,0h24V57c-2.62,0-5.27,0-7.92,0a13.69,13.69,0,0,0-2.4.1,2.56,2.56,0,0,0,.37,5.09c4.56,0,9.12.08,13.68-.11,4.05-.16,6.75-3,9.59-5.42,3.32-2.83,6.65-5.65,9.89-8.56,1.49-1.35,3.13-1,4.74-.7a15.14,15.14,0,0,1,9.13,5.46c1.41,1.62,2.79,2.91,5.26,2,1-.36,2.23,0,3.44.09a7.35,7.35,0,0,1,7-5.28c3.73-.13,6.09,2,7.52,5.37,3.45-.67,7-.57,8.68,2.82,1.37,2.81,1.54,6.21,2.3,9.59a16.21,16.21,0,0,1,3.6,0,7.09,7.09,0,0,1,5.69,6.92c0,11,.69,22.14-1.45,33.1a79.41,79.41,0,0,1-18.21,37.51c-1.18,1.36-2.41,2.69-3.7,4.12l-3-3.36c3.38-4.54,7.19-9.06,10.32-14a73.13,73.13,0,0,0,11.21-38.66c.09-5.9.05-11.81,0-17.71,0-2.12-1-3.31-2.71-3.21A2.36,2.36,0,0,0,167,74.88c0,2.4,0,4.8,0,7.32h-4.89V63.47c0-2.5-.88-3.78-2.59-3.82s-2.63,1.15-2.63,3.71c0,5.57,0,11.13,0,16.7v2.12H152V59.05c0-.47,0-.94,0-1.41-.09-1.93-1.19-3.2-2.75-3-1.79.18-2.45,1.34-2.44,3.07,0,7.38,0,14.76,0,22.14v2.34H142c0-.56-.11-1.14-.11-1.72,0-5.84,0-11.68,0-17.52,0-2.13-1-3.28-2.69-3.25s-2.46,1.14-2.46,3.22c0,9,0,18.11,0,27.17v2.15h-4.86c0-2.75,0-5.47,0-8.19,0-.74.21-1.69-.16-2.16-.67-.86-1.73-2-2.58-2A3.24,3.24,0,0,0,126.78,82,100.57,100.57,0,0,0,127,96.67c.25,2.27,1.8,4.6,3.29,6.49,3.3,4.22,6.89,8.22,10.46,12.22,1.4,1.57,1,3.26.73,4.93-.65,3.81-2.83,6.75-5.68,9.23-1.46,1.26-2.66,2.46-1.8,4.73.4,1,.07,2.37.07,3.78a7.3,7.3,0,0,1,5.13,7.28c0,3.55-2.07,5.81-5.22,7.12,0,.17-.14.3-.12.42,1,6.36-2.06,9.93-8.45,9.94h-3.75c-.12.19-.26.3-.24.39,1.09,5.94-2.88,9.94-8.89,9.69-6.64-.27-13.29,0-19.92-.28A77.88,77.88,0,0,1,46.52,155.4c-1.9-1.49-3.67-3.14-5.51-4.7-.46-.39-.94-.76-1.51-1.22l3.68-3.54a75.57,75.57,0,0,0,52.41,22c6,.07,11.94,0,17.91,0a3.64,3.64,0,0,0,.81,0c1.47-.34,2.43-1.17,2.31-2.79a2.31,2.31,0,0,0-2.5-2.34C111.71,162.79,109.31,162.82,106.66,162.82Zm7.27-35.19c.59,0,1.17.1,1.76.12q6.9.24,13.82.46a1.26,1.26,0,0,0,.9-.29c1.92-2.2,3.94-4.35,5.67-6.7,1-1.4.78-2.89-.53-4.34-3.33-3.67-6.55-7.45-9.7-11.28-1.88-2.28-3.55-4.76-3.65-7.87-.18-5.41-.37-10.84-.34-16.25,0-3.33,3.21-6.32,6.55-6.5,1.1-.06,2.21,0,3.45,0,0-.85,0-1.58,0-2.3.14-4.41.3-8.82.44-13.23,0-.26,0-.62-.12-.76-2.46-2.32-4.36-5.4-8-6.18a3.55,3.55,0,0,0-2.65.54c-4.16,3.38-8.18,6.93-12.3,10.37A15.19,15.19,0,0,1,99.9,67c-4.63.14-9.26.08-13.89,0a7.08,7.08,0,0,1-6.94-7.14c0-.91,0-1.81,0-2.63l-15.74-.73a.85.85,0,0,0-.56.16c-2.32,2.47-5.42,4.36-6.2,8a3.54,3.54,0,0,0,.56,2.66c3,3.74,6.24,7.37,9.38,11,2.25,2.64,4.29,5.55,4.49,9a158.92,158.92,0,0,1,.06,16.48c-.15,3.21-3.35,5.75-6.64,5.93-1,.06-2.08,0-3.19,0,0,.68-.08,1.2-.1,1.73-.15,4.61-.31,9.22-.45,13.83a1.29,1.29,0,0,0,.28.89c2.28,2.24,4.18,4.92,7.41,6a3,3,0,0,0,3.3-.58c2.48-2.25,5.08-4.38,7.6-6.59,3.74-3.27,7.39-6.82,12.66-7.25,3.94-.33,7.93.08,11.87-.22C110.11,117.15,114.64,119.69,113.93,127.63Z"/><path class="cls-1" d="M32.94,141.92l3.73-3,3.1,3.64L36,145.64Z"/><path class="cls-1" d="M50,32.62l-3.65,3.1L43.19,32l3.64-3.08Z"/><path class="cls-1" d="M160,43.23l-3.73,3.07-3.09-3.6,3.69-3.15C157.9,40.76,158.88,41.9,160,43.23Z"/><path class="cls-1" d="M145.61,155.9l-3-3.75,3.64-3.05,3.1,3.73Z"/></svg>