<svg id="Capa_1" data-name="Capa 1" xmlns="http://www.w3.org/2000/svg" viewBox="0 0 193.01 184.87"><defs><style>.cls-1{fill:#065297;}.cls-2{fill:#e7c11f;}</style></defs><title>PRESTAMO</title><path class="cls-1" d="M162.28,113.79l-6.73-2.61c1.08-3.6,2.28-7.05,3.12-10.58s1.33-7.18,2-11H125.43c-.18,3.1-.36,6.24-.56,9.71l-7.45-2.92c.11-2.23.22-4.41.33-6.8H63.34c.83,7.9,1.64,15.74,2.44,23.42,7.67-.29,14.8-.71,21.93-.79,6.29-.06,12.59.28,18.88.37a1.65,1.65,0,0,1,1.91,1.63c.33,2,.84,3.92,1.36,6.24a258.91,258.91,0,0,0-41.87.33,5.32,5.32,0,0,0,0,1.14c2.06,7.89,4.6,15.62,9.16,22.45a37.08,37.08,0,0,0,6.06,7c4.67,4.18,9.91,4.11,14.8.22a30.36,30.36,0,0,0,8-10.33c2-4,3.7-8.09,5.54-12.17a5.79,5.79,0,0,1,.37.93c.76,3.39,1.57,6.78,2.21,10.2a4.48,4.48,0,0,1-.37,2.73c-1.64,3-3.44,6-5.33,9.22l7.81-2.52c.51,2.26,1.08,4.49,1.46,6.75.06.33-.69,1-1.19,1.2a71.11,71.11,0,0,1-22.73,4.46c-26.8.72-48.75-9.36-65.31-30.43-11.82-15-16.92-32.39-16-51.5A74.14,74.14,0,0,1,23.23,44.39c12-19.6,29.24-32.16,51.85-36.64,31.93-6.34,63.32,6.9,80.86,34.41C170,64.26,172,87.94,163,112.54c-.1.28-.22.56-.35.84A2.66,2.66,0,0,1,162.28,113.79ZM63.44,81c.81.07,1.23.14,1.64.14,17,0,33.93,0,50.9,0,1.32,0,2-.1,1.83-1.58-.77-7.71-1.5-15.42-2.24-23.14-.12-1.17-.69-1.46-1.86-1.3-2,.29-4,.41-6,.53a268.26,268.26,0,0,1-40.09-.44c-1.37-.12-1.68.36-1.82,1.53-.4,3.27-1,6.52-1.31,9.79C64,71.33,63.78,76.08,63.44,81Zm50.29-33.67c-1-3.28-1.85-6.45-2.94-9.53-2.54-7.18-5.63-14.07-11.1-19.59C94.05,12.53,87.75,12.41,82,18a32.26,32.26,0,0,0-3.79,4.46c-4.6,6.45-7.28,13.77-9.47,21.31-.35,1.21-.61,2.44-.91,3.67C75.09,49,105.64,49,113.73,47.35ZM58.08,54.68,29.87,48.27A68.77,68.77,0,0,0,20.12,81H55.59Q56.86,67.57,58.08,54.68ZM160.56,81.09a69.79,69.79,0,0,0-9.47-32.36c-.56-1-1.15-.73-2-.51-4.94,1.37-9.86,2.79-14.85,4-3.67.87-7.42,1.39-11,2,.85,9,1.68,17.88,2.53,26.87Zm-102.41,33c-.81-8.25-1.62-16.35-2.43-24.55H20.32c0,.55,0,1,0,1.37a70.77,70.77,0,0,0,9.18,28.7c.6,1.06,1.26.78,2.13.55,5.47-1.47,10.93-3,16.44-4.28C51.44,115.07,54.88,114.64,58.15,114.07ZM34.64,127.16c10.21,12.76,22.78,21.09,38,25.1-2.51-4.87-5.31-9.6-7.43-14.62s-3.62-10.46-5.46-15.93A129.67,129.67,0,0,0,34.64,127.16ZM59.6,47C61.54,41.25,63,35.88,65.16,30.8s5-9.8,7.48-14.7A70.06,70.06,0,0,0,34.88,41l.09.81Zm61.75-.4A129.72,129.72,0,0,0,146,41.19a71.14,71.14,0,0,0-37.86-25.06C115.07,25.48,118.6,35.76,121.35,46.63Z"/><path class="cls-2" d="M141.08,152.36c-4.26,6.16-8.4,12.16-12.84,18.6-5.12-23.13-10.12-45.73-15.2-68.71l65.66,25.47-20.58,10.17,22.51,26.25L163.7,178.69Z"/></svg>