<svg id="Capa_1" data-name="Capa 1" xmlns="http://www.w3.org/2000/svg" viewBox="0 0 193.01 184.87"><defs><style>.cls-1{fill:#065297;}.cls-2{fill:#e7c11f;}</style></defs><title>TRABAJA CON NOSOTROS</title><path class="cls-1" d="M10,110.5c3-9.27,9.6-12.82,19.06-12.35,6.35.32,12.72.06,19.41.06-6.33,14.44-2.14,29.41-4,44.36H26.56c-2.95,0-5.89-.09-8.83,0-3.54.13-6.24-1-7.74-4.39Z"/><path class="cls-1" d="M183,138.2a7.17,7.17,0,0,1-7,4.38c-8.58-.05-17.15,0-25.73,0a10.51,10.51,0,0,1-1.86-.32c-1.68-14.62,2.33-29.57-3.85-43.95,8.45,0,16.63-.41,24.76.12,7.3.47,11.39,5.49,13.66,12.11Z"/><path class="cls-1" d="M96.34,152.85q-16.14,0-32.28,0c-5.37,0-7.25-1.79-7.26-7,0-11.15,0-22.3,0-33.45,0-6.33,2.91-11.22,7.87-15,2.36-1.83,3.91-2,5.9.81,6.49,9,13.3,17.84,20,26.75,4.12,5.51,7.77,5.54,11.86.08,6.76-9,13.59-18,20.23-27,1.7-2.34,3.08-2.51,5.31-.88,5.06,3.71,8.1,8.57,8.19,14.86.16,11.53.1,23.07.06,34.6,0,4.23-2.12,6.27-6.42,6.28C118.63,152.87,107.49,152.85,96.34,152.85Z"/><path class="cls-2" d="M97,32a26.16,26.16,0,0,1-.43,52.32c-14.55-.06-26-11.8-25.91-26.6A25.85,25.85,0,0,1,97,32Z"/><path class="cls-2" d="M154,95.32a19.72,19.72,0,1,1-.11-39.43A20,20,0,0,1,173.77,76,19.73,19.73,0,0,1,154,95.32Z"/><path class="cls-2" d="M39.17,95.32A19.67,19.67,0,0,1,19.24,75.75,20,20,0,0,1,39,55.89a19.72,19.72,0,1,1,.2,39.43Z"/><path class="cls-2" d="M96.57,93.6c3.33,0,6.66,0,10,0,2.84,0,3.5,1.48,2,3.67-3.24,4.58-6.66,9-10,13.54-1.35,1.8-2.73,1.62-4-.11-3.29-4.4-6.65-8.75-9.82-13.23-1.72-2.42-1-3.77,2-3.86C89.92,93.52,93.25,93.6,96.57,93.6Z"/></svg>