<svg id="Capa_1" data-name="Capa 1" xmlns="http://www.w3.org/2000/svg" xmlns:xlink="http://www.w3.org/1999/xlink" viewBox="0 0 193.01 184.87"><defs><style>.cls-1,.cls-9{fill:#e7c11f;}.cls-2{fill:#fff;}.cls-3,.cls-4,.cls-5,.cls-6,.cls-7,.cls-8,.cls-9{fill-rule:evenodd;}.cls-3{fill:url(#Degradado_sin_nombre_3);}.cls-4{fill:url(#Degradado_sin_nombre_3-2);}.cls-5{fill:url(#Degradado_sin_nombre_3-3);}.cls-6{fill:url(#Degradado_sin_nombre_3-4);}.cls-7{fill:url(#Degradado_sin_nombre_3-5);}.cls-8{fill:url(#Degradado_sin_nombre_3-6);}</style><linearGradient id="Degradado_sin_nombre_3" x1="88.83" y1="49.04" x2="104.61" y2="49.04" gradientUnits="userSpaceOnUse"><stop offset="0" stop-color="#00587e"/><stop offset="0.49" stop-color="#005e96"/><stop offset="0.64" stop-color="#005c92"/><stop offset="0.78" stop-color="#005688"/><stop offset="0.89" stop-color="#004e79"/></linearGradient><linearGradient id="Degradado_sin_nombre_3-2" x1="94.48" y1="45.48" x2="98.91" y2="45.48" xlink:href="#Degradado_sin_nombre_3"/><linearGradient id="Degradado_sin_nombre_3-3" x1="97.2" y1="67.26" x2="111.27" y2="67.26" xlink:href="#Degradado_sin_nombre_3"/><linearGradient id="Degradado_sin_nombre_3-4" x1="102.13" y1="68.86" x2="106.59" y2="68.86" xlink:href="#Degradado_sin_nombre_3"/><linearGradient id="Degradado_sin_nombre_3-5" x1="81.47" y1="67.25" x2="95.84" y2="67.25" xlink:href="#Degradado_sin_nombre_3"/><linearGradient id="Degradado_sin_nombre_3-6" x1="86.29" y1="68.98" x2="90.78" y2="68.98" xlink:href="#Degradado_sin_nombre_3"/></defs><title>MODIFICACIONES WEB</title><path class="cls-1" d="M9.53,83.93V79.17a18.13,18.13,0,0,1,6.59-9.7Q51.58,43.06,86.94,16.52q9.56-7.15,19.16.07,35.6,26.64,71.21,53.26c8.88,6.62,8.07,19.47-1.75,24.55-2.05,1.06-4.47,1.41-6.82,2.11a.55.55,0,0,0-.07.3q0,22.59,0,45.17c0,1.07.51,1.3,1.42,1.43a14.28,14.28,0,0,1,12,13.22c.45,8.45-6.07,15.19-14.85,15.25-8,.05-16.07,0-24.11,0H26.28c-5.1,0-9.34-1.72-12.58-5.81-6.33-8-1.46-21,8.6-22.57,1.64-.27,2-.83,2-2.34-.06-14.38,0-28.76,0-43.13v-1.9c-4.76-.24-8.8-1.79-11.5-5.57C11.32,88.6,10.57,86.16,9.53,83.93ZM78.82,58.4A17.67,17.67,0,1,0,96.57,40.76,17.86,17.86,0,0,0,78.82,58.4ZM62.74,143V96.2H53.17V143Zm77,0V96.23h-9.53V143Zm-38.56,0V96.2h-9.4V143Z"/><path class="cls-2" d="M78.82,58.4a17.67,17.67,0,0,1,35.34,0,17.67,17.67,0,1,1-35.34,0Z"/><path class="cls-3" d="M96.81,50l2.85-3.67c.52-.67,1-1.35,1.58-2a1.73,1.73,0,0,1,2.32-.35,1.79,1.79,0,0,1,.64,2.78c-.56.86-1.22,1.67-1.85,2.49-.93,1.22-1.87,2.44-2.82,3.64a4.32,4.32,0,0,1-.81.73,2.9,2.9,0,0,1-3.68.07,8.24,8.24,0,0,1-1.46-1.37c-1.36-1.63-2.69-3.29-4-5A4.17,4.17,0,0,1,88.87,46a1.59,1.59,0,0,1,.77-1.68A1.64,1.64,0,0,1,91.48,44a4.06,4.06,0,0,1,1.19,1c1.27,1.51,2.51,3.07,3.77,4.6Z"/><path class="cls-4" d="M94.48,45.46a2.17,2.17,0,0,1,2.2-2.2,2.2,2.2,0,0,1,2.23,2.19,2.22,2.22,0,1,1-4.43,0Z"/><path class="cls-5" d="M102,65.06c-.22,1.56-.42,3.09-.64,4.61-.12.82-.2,1.66-.39,2.48a1.7,1.7,0,0,1-1.83,1.45,1.78,1.78,0,0,1-2-2.08c.06-1,.23-2,.36-3.08.2-1.52.4-3,.62-4.57a4.29,4.29,0,0,1,.34-1,2.92,2.92,0,0,1,3.15-1.91,8.16,8.16,0,0,1,2,.47c2,.73,4,1.5,5.95,2.29a4.25,4.25,0,0,1,1.31.86,1.61,1.61,0,0,1,.18,1.85,1.63,1.63,0,0,1-1.43,1.18,3.88,3.88,0,0,1-1.51-.23c-1.87-.67-3.72-1.4-5.58-2.1Z"/><path class="cls-6" d="M106.28,67.77a2.18,2.18,0,0,1-.81,3,2.22,2.22,0,1,1,.81-3Z"/><path class="cls-7" d="M90.8,65.08c.26,1.57.51,3.1.77,4.63.14.84.24,1.68.46,2.49a1.74,1.74,0,0,0,1.89,1.42,1.8,1.8,0,0,0,1.91-2.16c-.09-1-.29-2.07-.45-3.09-.24-1.54-.49-3.07-.76-4.59a3.89,3.89,0,0,0-.36-1A2.94,2.94,0,0,0,91,60.91a7.7,7.7,0,0,0-2,.52c-2,.8-4,1.63-5.94,2.48a4.07,4.07,0,0,0-1.3.91,1.62,1.62,0,0,0-.13,1.87,1.66,1.66,0,0,0,1.48,1.15,4,4,0,0,0,1.52-.28c1.86-.73,3.71-1.51,5.56-2.27Z"/><path class="cls-8" d="M86.57,67.94a2.19,2.19,0,0,0,.89,3,2.23,2.23,0,0,0,3-.87A2.26,2.26,0,0,0,89.61,67,2.22,2.22,0,0,0,86.57,67.94Z"/><path class="cls-9" d="M88.11,55.88l-4.37,1.71c-.79.31-1.59.59-2.34,1a1.74,1.74,0,0,0-1,2.14,1.79,1.79,0,0,0,2.5,1.42c1-.3,2-.7,2.94-1.08,1.45-.55,2.9-1.11,4.33-1.68a5.09,5.09,0,0,0,1-.57,3,3,0,0,0,1.12-3.55,8.12,8.12,0,0,0-.92-1.81c-1.19-1.78-2.4-3.55-3.65-5.29a4,4,0,0,0-1.16-1.08,1.6,1.6,0,0,0-1.85.25A1.65,1.65,0,0,0,83.84,49a4,4,0,0,0,.59,1.43c1.09,1.67,2.24,3.31,3.37,5Z"/><path class="cls-9" d="M84.42,52.44a2.23,2.23,0,0,0-1.28,4.28,2.23,2.23,0,1,0,1.28-4.28Z"/><path class="cls-9" d="M104.61,55.84l2.55-3.93c.46-.71,1-1.41,1.34-2.15a1.72,1.72,0,0,0-.44-2.32,1.8,1.8,0,0,0-2.86.3c-.64.82-1.18,1.71-1.76,2.59-.85,1.29-1.71,2.59-2.53,3.89a3.81,3.81,0,0,0-.43,1,2.91,2.91,0,0,0,1.15,3.53,8.27,8.27,0,0,0,1.79.94c2,.75,4,1.48,6.06,2.17a4,4,0,0,0,1.57.2c.74,0,1.13-.61,1.36-1.28a1.67,1.67,0,0,0-.32-1.86,4,4,0,0,0-1.31-.81c-1.87-.72-3.76-1.39-5.64-2.08C105,56,104.81,55.93,104.61,55.84Z"/><path class="cls-9" d="M109.74,56.56a2.19,2.19,0,0,0,1.37-2.83,2.22,2.22,0,0,0-2.83-1.4,2.24,2.24,0,1,0,1.46,4.23Z"/></svg>