<svg id="Capa_1" data-name="Capa 1" xmlns="http://www.w3.org/2000/svg" viewBox="0 0 193.01 184.87"><defs><style>.cls-1{fill:#e7c11f;}.cls-2{fill:#0d588b;}</style></defs><title>MODIFICACIONES WEB</title><path class="cls-1" d="M45.14,121.46V61.63H147.33v59.83ZM83.61,67.77c-5.69,0-10.94,0-16.19,0A1.92,1.92,0,0,0,66.07,69,21.42,21.42,0,0,1,52.65,82.64a1.76,1.76,0,0,0-1.34,2q.07,6.93,0,13.86a1.75,1.75,0,0,0,1.38,2A21.23,21.23,0,0,1,66,114.07a1.59,1.59,0,0,0,1.8,1.31c4.5-.06,9,0,13.51,0h3.42A27.52,27.52,0,0,1,83.61,67.77Zm26.62,47.57c5.18,0,9.85,0,14.52,0,.45,0,1.12-.67,1.3-1.16,2.47-6.75,7-11.44,13.82-13.76a1.73,1.73,0,0,0,1.35-2c-.06-4.56-.07-9.13,0-13.69a1.71,1.71,0,0,0-1.41-1.94c-5.82-2-10.33-5.66-12.59-11.32-1.26-3.17-2.84-4.07-6-3.75s-6.28.06-9.77.06C129.61,79,128.58,104.88,110.23,115.34ZM95,78c.31,1.77-.78,2.21-2.13,2.7A5.71,5.71,0,0,0,89,85.77a5.6,5.6,0,0,0,2.55,5.53,22.89,22.89,0,0,0,4.24,1.83c1.55.58,3.2.92,4.7,1.6a2.09,2.09,0,0,1,.86,1.81,2.25,2.25,0,0,1-1.49,1.37c-1.67.35-3.51.38-4.74-.92-1.74-1.82-3.72-1.36-5.8-1.27v6.59c1.44-.07,3,.27,4-.28,1.52-.79,1.46,0,1.55,1,.05.5.09,1,.12,1.46h4.2l.24-1.78c.75-.2,1.43-.32,2.08-.55a6,6,0,0,0,4.31-4.55,5.8,5.8,0,0,0-2.57-6.34,21.2,21.2,0,0,0-4.4-1.88,39.15,39.15,0,0,1-4.11-1.25c-.62-.29-1.37-1.45-1.22-2a2.6,2.6,0,0,1,1.9-1.58c1.43,0,3.27.14,4.18,1,1.85,1.75,3.77,1.19,5.81,1.2V79.88a36.15,36.15,0,0,1-4.5.9c-.5,0-1.21-.6-1.55-1.11s-.11-1.07-.14-1.68Z"/><path class="cls-2" d="M7.72,164.88,20,155.72c-1.6-3.63-3.4-7.05-4.64-10.66-4.06-11.78-3.08-23.39,1.86-34.72C21.9,99.6,29.37,91,38.14,83.24c-2.86,9.11-4.65,18.34-3.79,27.93s3.87,18.4,10,26.15L58.6,126.83c-.87,16.81-1.72,33.25-2.58,49.91Z"/><path class="cls-2" d="M154.69,101.71c6.22-19.07,6.42-37.25-6-54.25L134.41,58c.87-16.84,1.72-33.3,2.58-49.9L185.29,20,173,29.15c1.6,3.56,3.42,6.85,4.61,10.36,4.45,13.17,2.94,25.91-3.32,38.18-4.71,9.24-11.44,16.88-19.06,23.79A3.06,3.06,0,0,1,154.69,101.71Z"/></svg>