<svg id="Capa_1" data-name="Capa 1" xmlns="http://www.w3.org/2000/svg" xmlns:xlink="http://www.w3.org/1999/xlink" viewBox="0 0 503.84 474.13"><defs><style>.cls-1{opacity:0.5;}.cls-2,.cls-3,.cls-4,.cls-5,.cls-6,.cls-7,.cls-8{fill-rule:evenodd;}.cls-2{fill:url(#Degradado_sin_nombre_4);}.cls-3{fill:url(#Degradado_sin_nombre_4-2);}.cls-4{fill:url(#Degradado_sin_nombre_4-3);}.cls-5{fill:url(#Degradado_sin_nombre_4-4);}.cls-6{fill:url(#Degradado_sin_nombre_4-5);}.cls-7{fill:url(#Degradado_sin_nombre_4-6);}.cls-8{fill:#e9ca38;}</style><linearGradient id="Degradado_sin_nombre_4" x1="190.57" y1="129.86" x2="323.91" y2="-3.47" gradientUnits="userSpaceOnUse"><stop offset="0" stop-color="#00587e"/><stop offset="0.49" stop-color="#005e96"/><stop offset="0.64" stop-color="#005c92"/><stop offset="0.78" stop-color="#005688"/><stop offset="0.89" stop-color="#004e79"/></linearGradient><linearGradient id="Degradado_sin_nombre_4-2" x1="232.85" y1="72.66" x2="278.27" y2="27.24" xlink:href="#Degradado_sin_nombre_4"/><linearGradient id="Degradado_sin_nombre_4-3" x1="259.84" y1="438.1" x2="416.5" y2="281.44" xlink:href="#Degradado_sin_nombre_4"/><linearGradient id="Degradado_sin_nombre_4-4" x1="343.49" y1="410.06" x2="388.74" y2="364.81" xlink:href="#Degradado_sin_nombre_4"/><linearGradient id="Degradado_sin_nombre_4-5" x1="103.52" y1="423.91" x2="226.83" y2="300.6" xlink:href="#Degradado_sin_nombre_4"/><linearGradient id="Degradado_sin_nombre_4-6" x1="115.09" y1="412.15" x2="160.96" y2="366.28" xlink:href="#Degradado_sin_nombre_4"/></defs><title>LOGOMC</title><g class="cls-1"><path class="cls-2" d="M257.35,115.21c13.95-18,27.52-35.51,41.14-53C305.9,52.68,313,42.78,321.31,34c10.08-10.72,22-11.93,33.35-5C370.77,38.92,374.52,53,364,69.15c-8.13,12.4-17.61,24.06-26.64,35.89-13.5,17.6-27,35.19-40.76,52.56a62.85,62.85,0,0,1-11.64,10.54c-17.13,12.76-35.77,13.45-53.19,1a116,116,0,0,1-21-19.84Q181.29,114,153,77.7a57.63,57.63,0,0,1-10.2-20.24c-2.63-10.26,3-18.16,11.06-24.37s17.18-9.17,26.5-4.44a57.76,57.76,0,0,1,17.16,13.88C216,64.37,233.86,86.78,252,109,253.57,110.89,255.34,112.86,257.35,115.21Z"/><path class="cls-3" d="M223.73,49.77C223.61,32,237.54,18,255.48,18a31.91,31.91,0,0,1,32.21,31.58,32.24,32.24,0,0,1-32,32.61C237.73,82.16,223.8,68,223.73,49.77Z"/><path class="cls-4" d="M332.3,332.52c-3.11,22.58-6.07,44.59-9.13,66.52-1.72,11.92-2.87,24.06-5.64,35.77-3.39,14.36-13.09,21.36-26.4,21-18.87-.52-29.2-10.8-28.15-30,.84-14.86,3.26-29.67,5.14-44.46,2.87-22,5.76-43.92,9-65.88a61.29,61.29,0,0,1,4.78-14.93c8.46-19.69,24.28-29.61,45.59-27.49a118,118,0,0,1,28.07,6.68q43.2,15.91,85.8,33.14a58.08,58.08,0,0,1,18.93,12.4c7.45,7.57,6.52,17.22,2.65,26.66s-10.32,16.49-20.72,17a57,57,0,0,1-21.79-3.42c-26.9-9.67-53.64-20.09-80.4-30.25C337.67,334.39,335.24,333.57,332.3,332.52Z"/><path class="cls-5" d="M394,371.66c9,15.29,3.87,34.38-11.64,43.41a32.09,32.09,0,1,1-32.25-55.48C365.58,350.58,384.72,355.87,394,371.66Z"/><path class="cls-6" d="M170.61,332.83c3.76,22.68,7.36,44.8,11.07,66.86,2.08,12,3.56,24.2,6.71,35.95,3.82,14.39,13.81,21.15,27.26,20.48,19-1.1,29.1-11.78,27.53-31.16-1.25-15-4.11-29.86-6.5-44.68-3.49-22.12-7-44.2-10.92-66.25a61.21,61.21,0,0,0-5.23-14.91c-9.08-19.62-25.35-29.19-46.76-26.45a114.93,114.93,0,0,0-28.17,7.55C116.88,291.66,88.25,303.65,60,316a59,59,0,0,0-18.8,13.14c-7.26,7.82-6,17.54-1.89,26.91s10.88,16.39,21.39,16.67a58.33,58.33,0,0,0,21.88-4c26.91-10.59,53.55-21.87,80.31-32.86C165.24,334.84,167.7,334,170.61,332.83Z"/><path class="cls-7" d="M109.52,374.07c-8.65,15.75-3,34.81,12.9,43.46A32.15,32.15,0,0,0,166.17,405a32.58,32.58,0,0,0-12.74-44.34C137.5,352,118.34,357.87,109.52,374.07Z"/><path class="cls-8" d="M131.86,200.13c-21.46,8.36-42.34,16.46-63.13,24.66-11.35,4.5-22.93,8.53-33.78,14-13.31,6.71-17.9,17.88-14.41,30.85,5,18.5,17.49,26.14,36.1,20.55C71.05,285.86,85,280,99.08,274.6c20.88-8,41.76-16,62.5-24.34a64.33,64.33,0,0,0,13.6-8.22c17.25-12.95,23.27-30.8,16.17-51.23a116.64,116.64,0,0,0-13.19-26q-25.77-38.62-52.73-76.38a58.89,58.89,0,0,0-16.68-15.64C99.56,67.25,90.31,70.5,82,76.43s-13.81,14-11.85,24.4a57.19,57.19,0,0,0,8.51,20.57c15.84,24.16,32.4,47.88,48.64,71.8C128.75,195.3,130.09,197.54,131.86,200.13Z"/><path class="cls-8" d="M78.55,150.44A31.64,31.64,0,0,0,38.7,172.08a32.1,32.1,0,0,0,21.36,40.2,32.5,32.5,0,0,0,40.69-21.59C105.89,173.32,96.21,155.76,78.55,150.44Z"/><path class="cls-8" d="M369.81,199.58c12.52-19.31,24.75-38,36.89-56.82,6.62-10.25,13.69-20.28,19.33-31,6.88-13.2,4.13-24.94-6.33-33.47-14.74-12.11-29.41-11-41.29,4.35C369.21,94.5,361.3,107.39,353,120c-12.35,18.66-24.68,37.36-36.61,56.22a59.44,59.44,0,0,0-6.21,14.6c-6.52,20.57-1,38.58,16.66,51.06a119.07,119.07,0,0,0,25.85,13.43q43.44,16.36,87.37,31.36a58.29,58.29,0,0,0,22.68,3c10.7-.86,16.32-8.84,19.62-18.57s3-19.46-4.59-26.74A57.56,57.56,0,0,0,459,232.58c-27-10.4-54.27-20.05-81.38-30C375.11,201.72,372.7,200.75,369.81,199.58Z"/><path class="cls-8" d="M443.9,209.89c17-5.82,25.64-23.73,19.79-40.85a32.22,32.22,0,0,0-40.84-20.21c-17.08,5.74-26.37,24.44-20.47,41.31C408.3,207.25,426.41,215.88,443.9,209.89Z"/></g></svg>