<svg id="Capa_1" data-name="Capa 1" xmlns="http://www.w3.org/2000/svg" xmlns:xlink="http://www.w3.org/1999/xlink" viewBox="0 0 283.64 270.91"><defs><style>.cls-1{opacity:0.8;}.cls-2{opacity:0.2;}.cls-12,.cls-3{fill:#e7c11f;}.cls-10,.cls-11,.cls-13,.cls-14,.cls-15,.cls-16,.cls-3{fill-rule:evenodd;}.cls-4{fill:#edd1c4;}.cls-5{fill:#fff;}.cls-6{fill:#e1eff6;}.cls-7{fill:#bedbe6;}.cls-8{fill:#d7e9ee;}.cls-9{fill:#b5d6e0;}.cls-10{fill:url(#Degradado_sin_nombre_3);}.cls-11{fill:url(#Degradado_sin_nombre_3-2);}.cls-13{fill:url(#Degradado_sin_nombre_3-3);}.cls-14{fill:url(#Degradado_sin_nombre_3-4);}.cls-15{fill:url(#Degradado_sin_nombre_3-5);}.cls-16{fill:url(#Degradado_sin_nombre_3-6);}</style><linearGradient id="Degradado_sin_nombre_3" x1="157.27" y1="215.82" x2="252.67" y2="215.82" gradientUnits="userSpaceOnUse"><stop offset="0" stop-color="#00587e"/><stop offset="0.49" stop-color="#005e96"/><stop offset="0.64" stop-color="#005c92"/><stop offset="0.78" stop-color="#005688"/><stop offset="0.89" stop-color="#004e79"/></linearGradient><linearGradient id="Degradado_sin_nombre_3-2" x1="190.74" y1="226.64" x2="220.93" y2="226.64" xlink:href="#Degradado_sin_nombre_3"/><linearGradient id="Degradado_sin_nombre_3-3" x1="30.04" y1="215.76" x2="127.5" y2="215.76" xlink:href="#Degradado_sin_nombre_3"/><linearGradient id="Degradado_sin_nombre_3-4" x1="62.72" y1="227.47" x2="93.16" y2="227.47" xlink:href="#Degradado_sin_nombre_3"/><linearGradient id="Degradado_sin_nombre_3-5" x1="90.24" y1="51.13" x2="197.26" y2="51.13" xlink:href="#Degradado_sin_nombre_3"/><linearGradient id="Degradado_sin_nombre_3-6" x1="128.57" y1="27" x2="158.63" y2="27" xlink:href="#Degradado_sin_nombre_3"/></defs><title>MAYO FB</title><g class="cls-1"><g class="cls-2"><path class="cls-3" d="M64.83,118.1c-10.08,3.93-19.9,7.73-29.67,11.58-5.33,2.12-10.77,4-15.87,6.58-6.26,3.15-8.41,8.4-6.77,14.5,2.33,8.69,8.22,12.28,17,9.65,6.77-2,13.34-4.8,19.94-7.32,9.82-3.74,19.63-7.52,29.38-11.44a29.73,29.73,0,0,0,6.38-3.86c8.11-6.09,10.94-14.47,7.61-24.07a55.6,55.6,0,0,0-6.2-12.23Q74.47,83.34,61.81,65.59A27.68,27.68,0,0,0,54,58.25c-4.32-2.6-8.67-1.07-12.59,1.72s-6.49,6.6-5.56,11.46a26.78,26.78,0,0,0,4,9.67C47.26,92.45,55,103.6,62.67,114.84,63.37,115.83,64,116.88,64.83,118.1Z"/><path class="cls-3" d="M39.78,94.75a14.86,14.86,0,0,0-18.73,10.16,15.1,15.1,0,0,0,10,18.9,15.28,15.28,0,0,0,19.12-10.15A15.11,15.11,0,0,0,39.78,94.75Z"/><polyline class="cls-4" points="36.08 109.44 36.08 109.44 36.08 109.44 36.08 109.44"/><path class="cls-5" d="M30.27,121.23s-4.63-1.56-6-1.8a.26.26,0,0,1,0-.46,24.52,24.52,0,0,1,6.92,2.17l-.73.07Z"/><path class="cls-5" d="M43.36,98.52a58.44,58.44,0,0,1-4.6-4s-.32-.19-.4.21a24.64,24.64,0,0,0,5.37,4.87l-.31-.66Z"/><path class="cls-5" d="M48.9,116.8a14.19,14.19,0,0,1-4.08,4.65c-2.44,1.74-5.46,1.92-8.61,1.28a45,45,0,0,1-6-1.52s3.45-.62,4.53-3.47-.1-4.89,1.72-8.06h0c1.82-3.17,4.16-3.16,6.09-5.56s.71-5.66.71-5.66a43.62,43.62,0,0,1,4.32,4.39c2.14,2.39,3.51,5.09,3.25,8.07a14.27,14.27,0,0,1-2,5.88h0"/><path class="cls-6" d="M44.49,101.55s0,.33-.12.89a6.81,6.81,0,0,1-2.07,3.67c-2.24,2.12-3.55,2-4.81,4.14s-.45,3.24-1.15,6.25a6.92,6.92,0,0,1-2.2,3.72,6,6,0,0,1-.73.54,8.91,8.91,0,0,0,5.7,1.63,10.22,10.22,0,0,0,5.21-1,16.08,16.08,0,0,0,6.21-10.83,10.31,10.31,0,0,0-1.74-5,20,20,0,0,0-4.3-4"/><path class="cls-7" d="M36.3,121a46.29,46.29,0,0,0,3.15-3.91c1.16-1.58,1.39-2.25,2.8-4.53,1.8-2.91,4.18-7.43,3.8-8.56,0,0,1.1,1-1.63,6.63a31.6,31.6,0,0,1-4.65,7.22C37.4,120.62,36.3,121,36.3,121"/><path class="cls-7" d="M42.22,122s.9-1.09,2.32-3.14c.88-1.27,1.08-1.78,2.17-3.58,1.4-2.31,3.3-5.84,3.15-6.61,0,0,.63.59-1.6,5a32.63,32.63,0,0,1-3.59,5.74,10.62,10.62,0,0,1-2.45,2.6"/><path class="cls-7" d="M39.35,121.64s.89-1.27,2.59-3.61c1-1.44,1.48-2.16,2.76-4.23,1.62-2.65,3.79-6.59,3.49-7.57,0,0,1.08.69-1.42,5.79a29.26,29.26,0,0,1-4.46,6.9c-2.2,2.46-3,2.72-3,2.72"/><path class="cls-8" d="M45,109.47c1.28-2.89,1.39-4.3,1.29-5,.1.65,0,2.06-1.29,5M43.2,111h0m0,0c1.57-2.73,3.15-6,2.85-6.94.3,1-1.28,4.21-2.85,6.94m-.94,1.57v0M46.05,104h0m0,0h0m0,0h0m0,0h0m0,0h0m0,0h0"/><path class="cls-9" d="M44.84,109.73a27.62,27.62,0,0,0,1.09-3.5s-.29.7-.5,1.35a18.27,18.27,0,0,1-1.16,2.33,16.74,16.74,0,0,1-1.47,2.2,7,7,0,0,0-.68,1c-.21.36-.41.75-.62,1.16s-.44.84-.69,1.27a14.53,14.53,0,0,1-1.4,2l-1.66,2,1.71-1.34C37.3,120.65,36.3,121,36.3,121h0a46.29,46.29,0,0,0,3.15-3.91c1.16-1.58,1.39-2.25,2.8-4.53h0v0c.3-.48.62-1,.94-1.57h0c1.57-2.73,3.15-6,2.85-6.94h0a1,1,0,0,1,.19.52c.1.65,0,2.06-1.29,5,0,.09-.07.17-.11.26"/><path class="cls-6" d="M50.76,109.1a12.75,12.75,0,0,0-1.09-2.65c-.23-.42-.47-.83-.74-1.23a13.69,13.69,0,0,0-.84-1.16,21.92,21.92,0,0,0-4.08-4l.05,0a2.8,2.8,0,0,1,.09.81c0,.13,0,.27,0,.4s0,.27-.06.4a8.37,8.37,0,0,1-.46,1.55,7.83,7.83,0,0,1-.33.73c-.06.12-.11.24-.18.36l-.19.35a4.25,4.25,0,0,1-1,1.25c-.81.71-1.71,1.3-2.57,1.93-.43.32-.85.64-1.25,1a5.12,5.12,0,0,0-1,1.2l-.09,0h0a0,0,0,0,1,.07,0,.06.06,0,0,1,0,.07,5.26,5.26,0,0,0-.51,1.49,14.5,14.5,0,0,0-.23,1.59c-.12,1.06-.17,2.13-.38,3.19a4.1,4.1,0,0,1-.55,1.51l-.21.35-.22.33c-.14.23-.31.44-.47.66a8.11,8.11,0,0,1-1.1,1.17l-.31.25c-.12.08-.22.16-.34.23a2.77,2.77,0,0,1-.74.34V121a21.31,21.31,0,0,0,2.73.91,20.83,20.83,0,0,0,2.83.56,16.19,16.19,0,0,0,2.87.14,11.69,11.69,0,0,0,1.44-.14,11.29,11.29,0,0,0,1.4-.31,13.54,13.54,0,0,1-1.4.33,14.06,14.06,0,0,1-1.44.15,16.34,16.34,0,0,1-2.88-.12A22.45,22.45,0,0,1,34.7,122a22.13,22.13,0,0,1-2.75-.91s0,0,0,0l0,0h0a2.41,2.41,0,0,0,.71-.33,3.78,3.78,0,0,0,.33-.22c.11-.09.22-.16.31-.25a8,8,0,0,0,1.09-1.17c.16-.21.32-.42.47-.65l.21-.34.21-.34a4.37,4.37,0,0,0,.54-1.49c.2-1,.26-2.12.37-3.18,0-.53.12-1.07.22-1.59a5.13,5.13,0,0,1,.52-1.53l.09,0h0a.07.07,0,0,1-.07,0,.05.05,0,0,1,0-.07h0A5.17,5.17,0,0,1,38,108.72a14.93,14.93,0,0,1,1.26-1c.86-.64,1.76-1.22,2.56-1.93a4.09,4.09,0,0,0,1-1.22l.2-.35c.06-.11.11-.23.17-.35a7.83,7.83,0,0,0,.33-.73,8.4,8.4,0,0,0,.46-1.53c0-.13,0-.26.06-.4s0-.26,0-.39A3,3,0,0,0,44,100h0s0,0,0,0h0a22,22,0,0,1,4.08,4c.29.38.57.77.83,1.17a11.85,11.85,0,0,1,.73,1.24,12.55,12.55,0,0,1,1.07,2.66Z"/><path class="cls-3" d="M217.79,117.84c5.88-9.07,11.63-17.85,17.34-26.7,3.11-4.82,6.43-9.53,9.08-14.59,3.23-6.2,1.94-11.72-3-15.73-6.92-5.69-13.82-5.17-19.4,2-4.32,5.59-8,11.64-11.92,17.57-5.81,8.77-11.6,17.55-17.2,26.42a27.74,27.74,0,0,0-2.92,6.86c-3.07,9.66-.49,18.12,7.82,24A56.08,56.08,0,0,0,209.76,144q20.42,7.69,41.06,14.74a27.59,27.59,0,0,0,10.66,1.4c5-.41,7.67-4.16,9.22-8.73s1.41-9.15-2.16-12.57a27.21,27.21,0,0,0-8.86-5.52c-12.69-4.88-25.5-9.42-38.24-14.09C220.28,118.84,219.15,118.39,217.79,117.84Z"/><path class="cls-3" d="M252.61,122.68a14.91,14.91,0,0,0,9.29-19.19A15.13,15.13,0,0,0,242.72,94a15.29,15.29,0,0,0-9.63,19.41A15.11,15.11,0,0,0,252.61,122.68Z"/><polyline class="cls-4" points="247.07 108.74 247.07 108.74 247.07 108.74 247.07 108.74"/><path class="cls-5" d="M252.81,120.55s4.57-1.62,6-1.86a.26.26,0,0,0,0-.46,24.52,24.52,0,0,0-6.92,2.17l.73.07Z"/><path class="cls-5" d="M239.85,97.76s3.54-3.11,4.46-4.2a.26.26,0,0,1,.41.21,24.56,24.56,0,0,1-5.37,4.88l.31-.67Z"/><path class="cls-5" d="M234.24,116.1a14.31,14.31,0,0,0,4.08,4.65c2.44,1.74,5.46,1.92,8.61,1.28a44.36,44.36,0,0,0,6-1.52s-3.44-.62-4.53-3.47.1-4.89-1.72-8.06h0c-1.81-3.17-4.16-3.16-6.09-5.56s-.71-5.66-.71-5.66a45.07,45.07,0,0,0-4.32,4.39c-2.14,2.39-3.51,5.09-3.25,8.07a14.23,14.23,0,0,0,2,5.87h0"/><path class="cls-6" d="M238.66,100.85s0,.33.11.89a6.81,6.81,0,0,0,2.07,3.67c2.25,2.12,3.55,2,4.81,4.14s.45,3.24,1.15,6.25a7,7,0,0,0,2.2,3.72,6,6,0,0,0,.73.54,8.89,8.89,0,0,1-5.69,1.63,10.21,10.21,0,0,1-5.21-1,14.44,14.44,0,0,1-4.2-4.79,14.6,14.6,0,0,1-2-6,10.26,10.26,0,0,1,1.75-5,19.67,19.67,0,0,1,4.3-4"/><path class="cls-7" d="M246.84,120.3a46.29,46.29,0,0,1-3.15-3.91c-1.16-1.58-1.39-2.25-2.8-4.53-1.79-2.92-4.18-7.43-3.8-8.56,0,0-1.1,1,1.64,6.63a31.58,31.58,0,0,0,4.64,7.22c2.38,2.77,3.47,3.15,3.47,3.15"/><path class="cls-7" d="M240.93,121.26s-.91-1.09-2.33-3.14c-.87-1.27-1.08-1.78-2.17-3.58-1.4-2.31-3.3-5.84-3.15-6.61,0,0-.63.59,1.6,5a33.84,33.84,0,0,0,3.59,5.74,10.46,10.46,0,0,0,2.46,2.6"/><path class="cls-7" d="M243.79,120.94s-.89-1.27-2.58-3.61c-1.05-1.45-1.49-2.16-2.76-4.23-1.63-2.65-3.79-6.59-3.49-7.57,0,0-1.09.69,1.42,5.79a29.23,29.23,0,0,0,4.45,6.9c2.21,2.45,3,2.72,3,2.72"/><path class="cls-8" d="M238.19,108.77c-1.28-2.89-1.39-4.3-1.29-5-.1.66,0,2.07,1.29,5m1.76,1.49h0m0,0c-1.56-2.73-3.14-6-2.85-6.94-.29,1,1.29,4.21,2.85,6.94m.94,1.57v0m-3.79-8.52h0m0,0h0m0,0h0m0,0h0m0,0h0m0,0h0"/><path class="cls-9" d="M238.3,109a26.24,26.24,0,0,1-1.08-3.5s.29.7.49,1.35a17.4,17.4,0,0,0,1.17,2.33,15.82,15.82,0,0,0,1.46,2.2,7.85,7.85,0,0,1,.69,1c.2.36.4.75.62,1.16s.44.84.69,1.27a13.57,13.57,0,0,0,1.39,2l1.66,2-1.7-1.34c2.15,2.44,3.15,2.79,3.15,2.79h0a46.29,46.29,0,0,1-3.15-3.91c-1.16-1.58-1.39-2.25-2.8-4.53h0v0c-.3-.48-.62-1-.93-1.57h0c-1.56-2.73-3.14-6-2.85-6.94h0a1,1,0,0,0-.19.51c-.1.66,0,2.07,1.29,5l.11.26"/><path class="cls-6" d="M232.38,108.4a13.31,13.31,0,0,1,1.09-2.65,13.82,13.82,0,0,1,.74-1.23q.39-.6.84-1.17a22.68,22.68,0,0,1,1.91-2.13,19.28,19.28,0,0,1,2.17-1.87l0,0a2.48,2.48,0,0,0-.08.81c0,.13,0,.27,0,.4l.06.4a8.27,8.27,0,0,0,.46,1.54c.11.25.21.5.33.74l.18.36.19.35a4.23,4.23,0,0,0,1,1.24c.81.72,1.71,1.31,2.57,1.94.43.32.85.64,1.25,1a5.2,5.2,0,0,1,1,1.2l.08-.05h0a0,0,0,0,0-.07,0,.06.06,0,0,0,0,.07,5.07,5.07,0,0,1,.52,1.49c.1.53.17,1.06.22,1.59.12,1.06.17,2.13.38,3.19a4.31,4.31,0,0,0,.56,1.51l.2.34c.07.12.15.23.22.34s.31.44.47.66a8.71,8.71,0,0,0,1.1,1.17,3.92,3.92,0,0,0,.32.25l.33.23a2.77,2.77,0,0,0,.74.34v-.07a21.31,21.31,0,0,1-2.73.91,21,21,0,0,1-2.82.56,16.35,16.35,0,0,1-2.88.14,13.57,13.57,0,0,1-1.43-.14,11.06,11.06,0,0,1-1.41-.31,11.33,11.33,0,0,0,1.4.32,14.09,14.09,0,0,0,1.44.16,17.31,17.31,0,0,0,2.88-.12,22.61,22.61,0,0,0,2.84-.55,22,22,0,0,0,2.74-.91s0,0,0,0l0,0h0a2.41,2.41,0,0,1-.71-.33c-.12-.07-.22-.15-.33-.22l-.31-.25a8.63,8.63,0,0,1-1.09-1.17c-.16-.22-.32-.43-.46-.65s-.15-.22-.22-.34l-.21-.34a4.37,4.37,0,0,1-.54-1.49c-.2-1-.25-2.12-.36-3.18-.06-.53-.12-1.07-.23-1.6a5.17,5.17,0,0,0-.52-1.52l-.09.05h0a0,0,0,0,0,.06,0s0,0,0-.07h0a5.13,5.13,0,0,0-1-1.22,15.07,15.07,0,0,0-1.27-1c-.86-.64-1.76-1.22-2.56-1.93a4.09,4.09,0,0,1-1-1.22l-.19-.35c-.07-.11-.12-.24-.18-.35s-.22-.49-.33-.73a8.4,8.4,0,0,1-.46-1.53c0-.13,0-.27-.06-.4s0-.26,0-.39a2.59,2.59,0,0,1,.07-.79h0s0,0,0,0h0a22.51,22.51,0,0,0-4.08,4c-.29.38-.57.77-.83,1.17a13.9,13.9,0,0,0-.73,1.24,13.1,13.1,0,0,0-1.07,2.66Z"/><path class="cls-10" d="M189.88,200.88c-1.46,10.61-2.86,21-4.29,31.26-.81,5.6-1.35,11.31-2.65,16.81-1.6,6.75-6.16,10-12.41,9.88-8.87-.25-13.72-5.08-13.23-14.12.4-7,1.53-13.94,2.42-20.89,1.35-10.34,2.7-20.64,4.24-31a28.52,28.52,0,0,1,2.25-7c4-9.25,11.4-13.91,21.42-12.92a55.23,55.23,0,0,1,13.19,3.14q20.3,7.47,40.32,15.57a27.11,27.11,0,0,1,8.89,5.83c3.51,3.56,3.07,8.09,1.25,12.53s-4.85,7.75-9.73,8a26.74,26.74,0,0,1-10.24-1.6c-12.65-4.55-25.21-9.44-37.79-14.22C192.4,201.76,191.26,201.37,189.88,200.88Z"/><path class="cls-11" d="M218.86,219.27a14.76,14.76,0,0,1-5.47,20.4,15.08,15.08,0,1,1,5.47-20.4Z"/><polyline class="cls-4" points="205.46 226.36 205.46 226.36 205.46 226.36 205.46 226.36"/><path class="cls-12" d="M193.66,232.13a50.58,50.58,0,0,1,2,5.7.26.26,0,0,0,.46,0,24.9,24.9,0,0,0-2.17-6.92l-.22.55Z"/><path class="cls-12" d="M216.41,219.11s3.05,3.54,4.14,4.46c0,0,.19.32-.21.41a24.64,24.64,0,0,1-4.87-5.37l.66.3Z"/><path class="cls-12" d="M198.1,213.53a14.36,14.36,0,0,0-4.66,4.08c-1.73,2.44-1.91,5.46-1.27,8.61a46.33,46.33,0,0,0,1.51,6s.63-3.45,3.48-4.53,4.89.09,8.06-1.72h0c3.17-1.82,3.16-4.17,5.56-6.09s5.66-.71,5.66-.71a44.17,44.17,0,0,0-4.39-4.33c-2.4-2.14-5.09-3.51-8.08-3.25a14.43,14.43,0,0,0-5.87,2h0"/><path class="cls-6" d="M213.35,218s-.34,0-.89.11a6.74,6.74,0,0,0-3.67,2.08c-2.13,2.24-2,3.55-4.15,4.8s-3.23.45-6.24,1.15a7,7,0,0,0-3.72,2.2,4.84,4.84,0,0,0-.54.74,9,9,0,0,1-1.64-5.7,10.29,10.29,0,0,1,1-5.21,14.39,14.39,0,0,1,4.78-4.2,14.6,14.6,0,0,1,6.05-2,10.24,10.24,0,0,1,5,1.74,19.85,19.85,0,0,1,4,4.3"/><path class="cls-7" d="M193.89,226.14a47.82,47.82,0,0,1,3.92-3.15c1.58-1.17,2.24-1.39,4.53-2.8,2.91-1.8,7.43-4.18,8.55-3.8,0,0-1-1.11-6.62,1.63a31.34,31.34,0,0,0-7.23,4.65c-2.76,2.37-3.15,3.47-3.15,3.47"/><path class="cls-7" d="M192.94,220.22s1.09-.91,3.14-2.33c1.27-.87,1.77-1.07,3.58-2.17,2.3-1.39,5.84-3.3,6.61-3.15,0,0-.59-.63-5,1.6a33.45,33.45,0,0,0-5.74,3.59,10.18,10.18,0,0,0-2.6,2.46"/><path class="cls-7" d="M193.26,223.08s1.26-.89,3.61-2.58c1.44-1.05,2.16-1.49,4.23-2.76,2.65-1.63,6.58-3.79,7.57-3.49,0,0-.7-1.09-5.8,1.42a28.88,28.88,0,0,0-6.89,4.46c-2.46,2.2-2.72,3-2.72,3"/><path class="cls-8" d="M205.42,217.48c2.89-1.28,4.31-1.38,5-1.29-.65-.09-2.07,0-5,1.29m-1.49,1.76h0m0,0c2.74-1.57,6-3.15,6.95-2.86-1-.29-4.21,1.29-6.95,2.86m-1.57.93,0,0,0,0m8.52-3.79h0m0,0h0m0,0h0m0,0h0m0,0h0m0,0h0"/><path class="cls-9" d="M205.17,217.6a24.28,24.28,0,0,1,3.5-1.09s-.7.29-1.35.5a21.56,21.56,0,0,0-4.54,2.62,6.46,6.46,0,0,1-1,.69c-.35.2-.74.4-1.15.62s-.84.44-1.27.69a13.15,13.15,0,0,0-2,1.39l-2,1.67,1.34-1.71c-2.43,2.15-2.79,3.16-2.79,3.16h0a47.82,47.82,0,0,1,3.92-3.15c1.58-1.17,2.24-1.39,4.53-2.8h0l0,0c.49-.3,1-.62,1.57-.93h0c2.74-1.57,6-3.15,6.95-2.86h0s-.12-.14-.51-.2c-.65-.09-2.07,0-5,1.29l-.25.12"/><path class="cls-6" d="M205.8,211.68a13.28,13.28,0,0,1,2.65,1.08c.42.23.83.48,1.23.74s.79.55,1.16.84a21.61,21.61,0,0,1,2.14,1.91,22.54,22.54,0,0,1,1.87,2.17l0,0a3.18,3.18,0,0,0-.81-.08c-.14,0-.27,0-.4,0s-.27,0-.4.06a8.34,8.34,0,0,0-1.55.45c-.24.11-.49.21-.73.33l-.36.18-.36.19a4.37,4.37,0,0,0-1.24,1c-.71.8-1.3,1.7-1.94,2.56a15.09,15.09,0,0,1-1,1.25,5.16,5.16,0,0,1-1.2,1l.05.09h0a.05.05,0,0,0,0-.07,0,0,0,0,0-.07,0,5.22,5.22,0,0,1-1.5.51c-.52.1-1,.17-1.58.23-1.06.11-2.14.17-3.19.37a4.24,4.24,0,0,0-1.51.56l-.35.21-.33.22c-.23.14-.44.31-.66.46a8.78,8.78,0,0,0-1.17,1.11l-.26.31a4,4,0,0,0-.22.34,2.71,2.71,0,0,0-.34.73h.06a21.94,21.94,0,0,1-.9-2.74,22.35,22.35,0,0,1-.57-2.82,17.32,17.32,0,0,1-.14-2.88,13.57,13.57,0,0,1,.14-1.43,13.11,13.11,0,0,1,.32-1.41,11.11,11.11,0,0,0-.33,1.41,13.58,13.58,0,0,0-.15,1.43,16.45,16.45,0,0,0,.12,2.89,22.8,22.8,0,0,0,.55,2.83,23.72,23.72,0,0,0,.9,2.74,0,0,0,0,0,0,0s0,0,0,0h0a2.88,2.88,0,0,1,.32-.72l.23-.33c.08-.1.16-.21.25-.31a8.63,8.63,0,0,1,1.17-1.09c.21-.15.42-.32.65-.46l.33-.22.35-.2a3.88,3.88,0,0,1,1.48-.54c1-.21,2.12-.26,3.19-.37.53-.06,1.06-.12,1.59-.23a5.11,5.11,0,0,0,1.53-.51l-.05-.09h0a.06.06,0,0,0,0,.07.06.06,0,0,0,.07,0h0a5.38,5.38,0,0,0,1.22-1.06c.36-.4.68-.83,1-1.26.63-.87,1.22-1.77,1.92-2.57a4.39,4.39,0,0,1,1.22-1l.35-.19.36-.18c.24-.12.49-.22.73-.33a9.27,9.27,0,0,1,1.53-.46l.39-.06.4,0a2.25,2.25,0,0,1,.78.08h0a.05.05,0,0,0,0,0v0a20.56,20.56,0,0,0-1.88-2.18,21.48,21.48,0,0,0-2.15-1.9q-.57-.45-1.17-.84c-.4-.26-.82-.5-1.24-.73a12.73,12.73,0,0,0-2.66-1.06Z"/><path class="cls-13" d="M93.33,201c1.76,10.65,3.45,21.05,5.19,31.41,1,5.66,1.68,11.38,3.16,16.9,1.8,6.76,6.49,9.94,12.81,9.62,9-.51,13.68-5.53,12.93-14.64-.58-7-1.93-14-3-21-1.64-10.4-3.3-20.78-5.13-31.14a28.81,28.81,0,0,0-2.46-7c-4.27-9.21-11.91-13.71-22-12.42a54.1,54.1,0,0,0-13.24,3.54c-13.5,5.38-26.95,11-40.24,16.82a27.72,27.72,0,0,0-8.84,6.18c-3.41,3.67-2.83,8.24-.88,12.64s5.1,7.7,10,7.84a27.51,27.51,0,0,0,10.28-1.9c12.64-5,25.16-10.27,37.74-15.44C90.8,202,92,201.58,93.33,201Z"/><path class="cls-14" d="M64.62,220.41a14.85,14.85,0,0,0,6.06,20.42,15.11,15.11,0,0,0,20.56-5.91,15.32,15.32,0,0,0-6-20.84A15.07,15.07,0,0,0,64.62,220.41Z"/><polyline class="cls-4" points="78.23 227.04 78.23 227.04 78.23 227.04 78.23 227.04"/><path class="cls-12" d="M90.05,232.76A65.07,65.07,0,0,0,87.93,239s-.18.33-.46,0a29.08,29.08,0,0,1,2.35-7.29l.14.69Z"/><path class="cls-12" d="M67.27,219.8s-3,3.54-4.14,4.46c0,0-.19.32.22.41a24.64,24.64,0,0,0,4.87-5.37l-.67.3Z"/><path class="cls-12" d="M85.59,214.22a14.35,14.35,0,0,1,4.66,4.08c1.73,2.44,1.91,5.46,1.27,8.61a46.39,46.39,0,0,1-1.51,6s-.63-3.45-3.48-4.53-4.89.1-8.06-1.72h0c-3.17-1.82-3.16-4.16-5.56-6.09s-5.66-.71-5.66-.71a43.62,43.62,0,0,1,4.39-4.32c2.4-2.14,5.09-3.51,8.07-3.25a14.27,14.27,0,0,1,5.88,2h0"/><path class="cls-6" d="M70.34,218.64s.33,0,.89.11a6.81,6.81,0,0,1,3.67,2.07c2.13,2.24,1.95,3.55,4.15,4.81s3.23.45,6.24,1.15A6.92,6.92,0,0,1,89,229a6,6,0,0,1,.54.73,9,9,0,0,0,1.64-5.7,10.3,10.3,0,0,0-1-5.21,16,16,0,0,0-10.83-6.21,10.24,10.24,0,0,0-5,1.74,20.06,20.06,0,0,0-4,4.31"/><path class="cls-7" d="M89.79,226.82a46.29,46.29,0,0,0-3.91-3.15c-1.58-1.16-2.25-1.39-4.53-2.8-2.91-1.8-7.43-4.18-8.55-3.8,0,0,1-1.1,6.62,1.63a31.67,31.67,0,0,1,7.23,4.65c2.76,2.37,3.14,3.47,3.14,3.47"/><path class="cls-7" d="M90.75,220.9s-1.09-.9-3.14-2.32c-1.27-.88-1.78-1.08-3.58-2.17-2.31-1.4-5.84-3.3-6.61-3.15,0,0,.59-.63,5,1.6a32.63,32.63,0,0,1,5.74,3.59,10.33,10.33,0,0,1,2.6,2.45"/><path class="cls-7" d="M90.43,223.77s-1.26-.89-3.61-2.58c-1.44-1.05-2.16-1.49-4.23-2.77-2.65-1.62-6.58-3.79-7.57-3.49,0,0,.69-1.08,5.79,1.42a29.05,29.05,0,0,1,6.9,4.46c2.46,2.21,2.72,3,2.72,3"/><path class="cls-8" d="M78.27,218.17c-2.89-1.28-4.31-1.39-5-1.29.65-.1,2.07,0,5,1.29m1.49,1.75h0m0,0c-2.73-1.57-6-3.15-6.94-2.85,1-.3,4.21,1.28,6.94,2.85m1.58.94h0m-8.52-3.79h0m0,0h0m0,0h0m0,0h0m0,0h0m0,0h0"/><path class="cls-9" d="M78.52,218.28a27.62,27.62,0,0,0-3.5-1.09s.7.29,1.35.5a18.27,18.27,0,0,1,2.33,1.16,17.62,17.62,0,0,1,2.21,1.47,6.82,6.82,0,0,0,1,.68c.36.21.75.41,1.16.62s.84.44,1.27.69a14.53,14.53,0,0,1,2,1.4l2,1.66L87,223.67c2.44,2.15,2.79,3.15,2.79,3.15h0a46.29,46.29,0,0,0-3.91-3.15c-1.58-1.16-2.25-1.39-4.53-2.8h0l-1.57-.94h0c-2.73-1.57-6-3.15-6.94-2.85h0a.91.91,0,0,1,.51-.19c.65-.1,2.07,0,5,1.29l.25.11"/><path class="cls-6" d="M77.89,212.36a12.75,12.75,0,0,0-2.65,1.09c-.42.23-.83.47-1.23.74a13.69,13.69,0,0,0-1.16.84,21.61,21.61,0,0,0-2.14,1.91,20.36,20.36,0,0,0-1.87,2.17l0-.05a2.48,2.48,0,0,1,.81-.08,2.68,2.68,0,0,1,.4,0c.14,0,.27,0,.4.06a8.37,8.37,0,0,1,1.55.46c.24.11.49.2.73.33l.36.18.35.19a4.25,4.25,0,0,1,1.25,1c.71.81,1.3,1.71,1.93,2.57.32.43.65.85,1,1.25a5.12,5.12,0,0,0,1.2,1l0,.09h0a0,0,0,0,1,0-.07.06.06,0,0,1,.07,0,5.22,5.22,0,0,0,1.5.51,14,14,0,0,0,1.58.23c1.06.12,2.14.17,3.19.38a4.1,4.1,0,0,1,1.51.55l.35.21.33.22c.23.14.44.31.66.47a8.11,8.11,0,0,1,1.17,1.1c.09.1.17.21.26.32s.15.21.22.33a2.77,2.77,0,0,1,.34.74h-.06a21.27,21.27,0,0,0,.9-2.73,20.83,20.83,0,0,0,.56-2.83,15.3,15.3,0,0,0,.14-2.87,10,10,0,0,0-.14-1.44,11.29,11.29,0,0,0-.31-1.4,11.37,11.37,0,0,1,.33,1.4,14.06,14.06,0,0,1,.15,1.44,16.34,16.34,0,0,1-.12,2.88,22.45,22.45,0,0,1-.55,2.83,23.26,23.26,0,0,1-.9,2.75s0,0,0,0l0,0h0a2.41,2.41,0,0,0-.33-.71,2.37,2.37,0,0,0-.22-.33,3.76,3.76,0,0,0-.25-.31,8.63,8.63,0,0,0-1.17-1.09,7.59,7.59,0,0,0-.65-.46l-.33-.22-.35-.21a4.3,4.3,0,0,0-1.49-.54c-1-.2-2.11-.25-3.18-.37-.53,0-1.07-.12-1.59-.22a5.13,5.13,0,0,1-1.53-.52l0-.09h0a.07.07,0,0,1,0,.07s0,0-.07,0h0a5.15,5.15,0,0,1-1.22-1.06c-.36-.4-.68-.83-1-1.26-.63-.86-1.22-1.76-1.93-2.56a4.18,4.18,0,0,0-1.21-1l-.35-.2-.36-.17a7.83,7.83,0,0,0-.73-.33,8.4,8.4,0,0,0-1.53-.46l-.39-.06-.4,0a3,3,0,0,0-.79.08h0s0,0,0,0v0a22,22,0,0,1,4-4.08c.38-.29.77-.57,1.17-.83a13.9,13.9,0,0,1,1.24-.73,13.33,13.33,0,0,1,2.66-1.07Z"/><path class="cls-15" d="M144.37,57.62c6.56-8.45,12.93-16.69,19.33-24.9,3.48-4.48,6.83-9.14,10.73-13.25,4.73-5,10.32-5.61,15.67-2.34,7.57,4.64,9.33,11.24,4.37,18.84-3.82,5.83-8.28,11.31-12.52,16.87-6.35,8.27-12.68,16.54-19.16,24.7a29.28,29.28,0,0,1-5.46,4.95c-8.06,6-16.81,6.32-25,.46a54.43,54.43,0,0,1-9.86-9.32Q108.63,57,95.34,40a27,27,0,0,1-4.8-9.51C89.31,25.66,92,22,95.74,19s8.07-4.31,12.45-2.09a27.09,27.09,0,0,1,8.06,6.53c8.67,10.26,17.08,20.79,25.6,31.21C142.59,55.59,143.42,56.51,144.37,57.62Z"/><path class="cls-16" d="M128.57,26.87a14.73,14.73,0,0,1,14.92-14.95,15,15,0,0,1,15.14,14.85,15.16,15.16,0,0,1-15,15.32A14.94,14.94,0,0,1,128.57,26.87Z"/><polyline class="cls-4" points="143.6 27.3 143.6 27.3 143.6 27.3 143.6 27.3"/><path class="cls-12" d="M130.51,28.48a49.34,49.34,0,0,0-1.32-6s0-.39.39-.27a24.82,24.82,0,0,1,1.84,7.18l-.49-.36Z"/><path class="cls-12" d="M156.73,27.7s.65-4.35,1.07-5.66a.25.25,0,0,0-.37-.23,24.09,24.09,0,0,0-1.24,6.86l.38-.59Z"/><path class="cls-12" d="M144,42.08a14.38,14.38,0,0,1-6.11-1c-2.75-1.18-4.48-3.66-5.59-6.68a45.48,45.48,0,0,1-1.83-5.88s2.34,2.61,5.33,2.05,4.12-2.65,7.77-2.75h0c3.66-.11,4.88,1.89,7.92,2.28s5.2-2.36,5.2-2.36a44.38,44.38,0,0,1-1.48,6c-.92,3.07-2.5,5.65-5.18,7a14.32,14.32,0,0,1-6,1.4h0"/><path class="cls-6" d="M154.72,30.34s-.28.17-.82.37a6.77,6.77,0,0,1-4.21.15c-3-.8-3.52-2-6-1.93s-3,1.31-5.93,2.29a7,7,0,0,1-4.31.07,4.71,4.71,0,0,1-.85-.35,9,9,0,0,0,1.58,5.72,10.26,10.26,0,0,0,3.61,3.9,16.15,16.15,0,0,0,12.48-.37,10.28,10.28,0,0,0,3.36-4.11,19.72,19.72,0,0,0,1.13-5.74"/><path class="cls-7" d="M133.86,33.54a46.54,46.54,0,0,0,5,.63c2,.17,2.65,0,5.33,0,3.42,0,8.52-.32,9.28-1.23,0,0-.26,1.45-6.5,2.07a31.24,31.24,0,0,1-8.59-.18c-3.6-.58-4.5-1.31-4.5-1.31"/><path class="cls-7" d="M136.14,39.08s1.41.2,3.89.34c1.54.08,2.08,0,4.19,0,2.7,0,6.7-.24,7.28-.78,0,0-.17.85-5.09,1.25a33,33,0,0,1-6.77-.06,10.38,10.38,0,0,1-3.5-.73"/><path class="cls-7" d="M134.92,36.47s1.54.1,4.42.32c1.78.13,2.62.13,5,.13,3.11,0,7.6-.21,8.28-1,0,0,0,1.29-5.68,1.82a29.41,29.41,0,0,1-8.21-.19c-3.25-.6-3.86-1.1-3.86-1.1"/><path class="cls-8" d="M148.21,34.88c3.13-.42,4.4-1.07,4.9-1.49-.5.42-1.77,1.07-4.9,1.49M146,34.17h0m0,0c3.15-.1,6.75-.45,7.41-1.2-.67.75-4.26,1.1-7.41,1.2m-1.83,0h0M153.44,33h0m0,0h0m0,0h0m0,0h0m0,0h0m0,0h0"/><path class="cls-9" d="M147.94,34.92a28,28,0,0,0,3.55-.9s-.75.11-1.42.28a16.9,16.9,0,0,1-2.59.22,15.66,15.66,0,0,1-2.64-.09,6.9,6.9,0,0,0-1.23,0c-.41,0-.84,0-1.31.07s-.94.07-1.44.08a13.9,13.9,0,0,1-2.47-.12l-2.54-.4,2,.76c-3.2-.57-4-1.23-4-1.23h0a46.54,46.54,0,0,0,5,.63c2,.17,2.65,0,5.33,0h0l1.83,0h0c3.15-.1,6.74-.45,7.41-1.2h0a1,1,0,0,1-.34.43c-.5.42-1.77,1.07-4.9,1.49l-.27,0"/><path class="cls-6" d="M151.57,39.63a12.8,12.8,0,0,0,1.69-2.31c.24-.41.46-.84.66-1.27s.39-.88.55-1.32A22.29,22.29,0,0,0,155.3,32a20.83,20.83,0,0,0,.45-2.83l.06,0a2.57,2.57,0,0,1-.64.5l-.36.19c-.12.05-.24.11-.37.15a7.65,7.65,0,0,1-1.56.42c-.26,0-.53.09-.79.11l-.4,0-.41,0a4.28,4.28,0,0,1-1.59-.22c-1-.32-2-.77-3-1.17-.5-.2-1-.4-1.51-.55a4.9,4.9,0,0,0-1.56-.25v-.11h0a.05.05,0,0,1,.05.05.06.06,0,0,1-.05.06,4.84,4.84,0,0,0-1.54.34c-.5.19-1,.41-1.47.64-1,.46-1.91,1-2.92,1.34a4.06,4.06,0,0,1-1.58.32h-.4l-.4,0c-.27,0-.54,0-.8-.05a7.65,7.65,0,0,1-1.58-.33l-.38-.13-.37-.17a2.72,2.72,0,0,1-.67-.45l0,0a24.23,24.23,0,0,0,.66,2.8,23,23,0,0,0,1,2.7,17.2,17.2,0,0,0,1.38,2.53,13.87,13.87,0,0,0,.87,1.15,10.9,10.9,0,0,0,1,1,12.27,12.27,0,0,1-1-1,14,14,0,0,1-.88-1.15,16.71,16.71,0,0,1-1.4-2.52,19.91,19.91,0,0,1-1-2.7,20.88,20.88,0,0,1-.67-2.81s0,0,0,0,0,0,0,0h0a2.66,2.66,0,0,0,.65.44l.36.16a2.84,2.84,0,0,0,.38.13,8.31,8.31,0,0,0,1.56.32c.27,0,.53.05.8.06h.8a4.12,4.12,0,0,0,1.55-.31c1-.38,1.94-.89,2.91-1.36.48-.23,1-.45,1.47-.64a5.34,5.34,0,0,1,1.58-.36v.11h0a.05.05,0,0,1,0,0,.06.06,0,0,1,0-.06h0a5.36,5.36,0,0,1,1.59.27,15,15,0,0,1,1.51.55c1,.4,2,.86,3,1.18a4.21,4.21,0,0,0,1.57.22l.4,0,.4,0c.27,0,.53-.07.79-.1a7.94,7.94,0,0,0,1.54-.41l.37-.16a3.84,3.84,0,0,0,.35-.18,2.5,2.5,0,0,0,.63-.48h.05v0a19.43,19.43,0,0,1-.47,2.83,21.78,21.78,0,0,1-.83,2.75q-.26.67-.57,1.32a13.93,13.93,0,0,1-.67,1.27,12.49,12.49,0,0,1-1.71,2.3Z"/></g></g></svg>