<svg id="Capa_1" data-name="Capa 1" xmlns="http://www.w3.org/2000/svg" viewBox="0 0 193.01 184.87"><defs><style>.cls-1{fill:#e7bd98;}.cls-2{fill:#e7c11f;}.cls-3{fill:#ce6b33;}</style></defs><title>MODIFICACIONES WEB</title><path class="cls-1" d="M18.45,126.4a7.91,7.91,0,0,0,.95-1q11.78-11.75,23.51-23.53A30.41,30.41,0,0,1,59.63,93a2.85,2.85,0,0,1,2.72.77,56.09,56.09,0,0,0,61.21,10.15c2.47-1.09,2.53-1.15,4.34.86A10.57,10.57,0,0,1,130,116.71a10.35,10.35,0,0,1-10.09,6.64c-10,0-20,0-30,0h-2v9.57c.51,0,1,.08,1.44.08,10.13,0,20.25.13,30.38,0,8.83-.13,15.21-4.35,19.14-12.3a15.09,15.09,0,0,1,2.65-4q11-11.18,22.13-22.19c4.23-4.19,10.14-4.84,14.62-1.71a11,11,0,0,1,1.38,17c-6.11,6.23-12.31,12.39-18.47,18.58-6.45,6.49-13,13-19.35,19.5a34,34,0,0,1-25.59,10.69c-9.11,0-18.22-.14-27.31.2-9.78.36-18.21,4.29-25.41,10.88l-1.09,1c-.46-.43-.91-.85-1.34-1.28L19.74,128.1c-.44-.44-1-.8-1.45-1.2C18.29,126.69,18.45,126.61,18.45,126.4Z"/><path class="cls-2" d="M104.77,6c3.32.73,6.77,1.12,10,2.25,18.6,6.58,29.72,19.64,32.09,39.27a46.33,46.33,0,0,1-39.75,51.3c-24.91,3.54-48.49-13.79-52.46-38.53A46.57,46.57,0,0,1,88.88,7.51c2.47-.66,5-1,7.53-1.48ZM89,75.71l6.87.65v5.12h9.56V76c.58-.28,1.06-.5,1.53-.74,5.3-2.62,8.67-8.49,8.07-14a14.53,14.53,0,0,0-14.32-13.38,4.82,4.82,0,0,1-4.88-5.5c.31-2.74,2.9-4.44,5.92-4s6.21.88,9.41,1.33c.46-3.23.9-6.28,1.36-9.44l-7.12-1.08V23.83h-9.6c0,1.46-.06,2.8,0,4.13A1.8,1.8,0,0,1,94.53,30a14.15,14.15,0,0,0-6.75,19.61c2.72,5.12,7.15,7.61,12.91,7.84a4.81,4.81,0,0,1,1.15,9.46,12.11,12.11,0,0,1-3.35,0c-2.87-.2-5.73-.47-8.7-.72C89.51,69.4,89.24,72.48,89,75.71Z"/><rect class="cls-3" x="28.82" y="120.96" width="15.94" height="62.39" rx="2.43" transform="translate(-96.82 70.58) rotate(-45)"/></svg>