<svg id="Capa_1" data-name="Capa 1" xmlns="http://www.w3.org/2000/svg" viewBox="0 0 193.01 184.87"><defs><style>.cls-1{fill:#e7c11f;}</style></defs><title>TRABAJA CON NOSOTROS</title><path class="cls-1" d="M7.42,121.63c.34-.78.64-1.57,1-2.33a10.63,10.63,0,0,1,9.65-6.3c3.13-.14,6.26-.12,9.39,0A10.67,10.67,0,0,1,38,123.72q.1,22.6,0,45.2a10.63,10.63,0,0,1-10.37,10.73,79.76,79.76,0,0,1-9.9,0,10.58,10.58,0,0,1-9.82-7.55,10,10,0,0,0-.51-1Z"/><path class="cls-1" d="M173,43.7V168.2q0,11.49-11.58,11.5c-2.84,0-5.68,0-8.52,0-6.34-.06-10.4-4-10.66-10.34,0-.64,0-1.27,0-1.91V43.69c-2.08,0-4,.05-5.87,0-2.65-.07-4.94-1-6.13-3.51s-.21-4.65,1.32-6.61C138,25.27,144.36,17,150.88,8.75c3.87-4.87,9.56-4.91,13.46,0,6.59,8.24,13,16.6,19.48,24.94,1.52,2,2.43,4.19,1.19,6.61s-3.54,3.37-6.2,3.42C177,43.73,175.11,43.7,173,43.7Z"/><path class="cls-1" d="M127.76,121q0,23.65,0,47.3c0,7.27-4.13,11.38-11.44,11.38q-4.17,0-8.35,0c-6.44,0-10.54-3.89-10.93-10.3,0-.41,0-.81,0-1.22V73.94a11.85,11.85,0,0,1,1.51-6.67,9.5,9.5,0,0,1,7.84-4.75q5.55-.21,11.12-.06c6.12.15,10.23,4.39,10.25,10.57,0,10.49,0,21,0,31.47Z"/><path class="cls-1" d="M52.64,134.37c0-11.66,0-23.31,0-35a9.85,9.85,0,0,1,7.71-9.86,7.89,7.89,0,0,1,1.88-.26c3.77,0,7.54-.08,11.3,0a9.83,9.83,0,0,1,9.69,9.83q.06,35.31,0,70.62a9.93,9.93,0,0,1-9.85,9.91c-3.65.14-7.31.15-11,0a10,10,0,0,1-9.77-10.16C52.61,157.79,52.64,146.08,52.64,134.37Z"/></svg>