<svg id="Capa_1" data-name="Capa 1" xmlns="http://www.w3.org/2000/svg" viewBox="0 0 193.01 184.87"><defs><style>.cls-1{fill:#e7c11f;}.cls-2{fill:#065297;}</style></defs><title>PRESTAMO</title><path class="cls-1" d="M119.35,108.27c-3.58-.19-6.86-.45-10.14-.5-5.59-.08-11.18-.1-16.77,0-2,0-2.71-.58-2.58-2.58.22-3.07.23-6.15.33-9.36-1.87,0-4-.12-6.13,0A3.92,3.92,0,0,0,80.27,100c0,2.61,0,5.23,0,8H72.15c.29-4,.09-8,1-11.83C74.23,91.29,79,88,84.15,88c7.8-.09,15.6-.11,23.4,0a11.85,11.85,0,0,1,11.79,11.74C119.4,102.42,119.35,105.11,119.35,108.27Z"/><path class="cls-1" d="M137.72,108h-8.09c.25-3.86.06-7.7.83-11.34A11.28,11.28,0,0,1,141.53,88q11.79-.18,23.6,0a11.93,11.93,0,0,1,11.76,12c0,2.61,0,5.22,0,8H169c0-2.2,0-4.44,0-6.68,0-4-1.37-5.37-5.33-5.39-6.83,0-13.66-.07-20.49-.08-4.06,0-5.43,1.38-5.44,5.49C137.71,103.5,137.72,105.69,137.72,108Z"/><path class="cls-1" d="M23.74,108H16.27c0-3.54-.41-7,.09-10.38A11.55,11.55,0,0,1,27.73,88q11.81-.17,23.6,0A11.81,11.81,0,0,1,63,99.62c.09,2.74,0,5.49,0,8.37h-8c0-2.32,0-4.63,0-6.95,0-3.77-1.34-5.12-5.09-5.14-7,0-13.94-.08-20.91-.08-3.7,0-5.15,1.46-5.16,5.13l0,6.42A4.54,4.54,0,0,1,23.74,108Z"/><path class="cls-1" d="M153.37,82.17a11,11,0,0,1-.07-21.9,11.12,11.12,0,0,1,11.07,11A11,11,0,0,1,153.37,82.17Z"/><path class="cls-1" d="M95.93,82.17a11,11,0,1,1,10.89-10.93A10.91,10.91,0,0,1,95.93,82.17Z"/><path class="cls-1" d="M50.48,71.28a10.95,10.95,0,0,1-21.89,0,10.95,10.95,0,1,1,21.89,0Z"/><path class="cls-2" d="M67.8,41.94A6.42,6.42,0,0,1,74,35.73a6.05,6.05,0,0,1,5.93,6A6.53,6.53,0,0,1,73.59,48,6,6,0,0,1,67.8,41.94Z"/><path class="cls-2" d="M118,35.7A6.61,6.61,0,0,1,124.28,42a6.15,6.15,0,0,1-6.12,6A6.49,6.49,0,0,1,112,41.63,6.07,6.07,0,0,1,118,35.7Z"/><path class="cls-2" d="M89.8,32.76a5.85,5.85,0,0,1,5.82-6A6.29,6.29,0,0,1,102,32.84,6,6,0,0,1,96,39,6.41,6.41,0,0,1,89.8,32.76Z"/><path class="cls-2" d="M93,142.93a6.12,6.12,0,0,1,5.9-6,6.39,6.39,0,0,1,6.2,6.22,6,6,0,0,1-5.88,6A6.35,6.35,0,0,1,93,142.93Z"/><path class="cls-2" d="M143.19,148.93a5.8,5.8,0,0,1-5.93-5.84,6.36,6.36,0,0,1,6.17-6.22,6,6,0,1,1-.24,12.06Z"/><path class="cls-2" d="M127.16,152.14a5.74,5.74,0,0,1-6,6,5.93,5.93,0,1,1,6-6Z"/><path class="cls-2" d="M152.38,126.89a6,6,0,0,1-5.9-5.91,6,6,0,1,1,5.9,5.91Z"/><path class="cls-2" d="M133.34,63.89a6,6,0,1,1-12,.07,6.1,6.1,0,0,1,5.87-6A6,6,0,0,1,133.34,63.89Z"/><path class="cls-2" d="M58.73,64a6,6,0,1,1,11.91-.3,6.08,6.08,0,0,1-6,6.17A5.87,5.87,0,0,1,58.73,64Z"/><path class="cls-2" d="M89.73,127a5.9,5.9,0,0,1-5.86-6A6.05,6.05,0,0,1,90,115a6,6,0,0,1-.23,12Z"/></svg>